<svg width="20" height="20" viewBox="0 0 20 20" fill="none" xmlns="http://www.w3.org/2000/svg">
<path d="M14.0625 0.625H5.9375C5.85462 0.625 5.77513 0.657924 5.71653 0.716529C5.65792 0.775134 5.625 0.85462 5.625 0.9375V2.1875V2.21031L6.5625 15.0203C6.57242 15.4584 6.73335 15.8796 7.01806 16.2127C7.30277 16.5459 7.6938 16.7704 8.125 16.8484V18.125C8.12128 18.2902 8.15108 18.4544 8.21258 18.6077C8.27409 18.7611 8.36602 18.9003 8.48284 19.0172C8.59967 19.134 8.73895 19.2259 8.89229 19.2874C9.04562 19.3489 9.20983 19.3787 9.375 19.375H10.625C10.7902 19.3787 10.9544 19.3489 11.1077 19.2874C11.2611 19.2259 11.4003 19.134 11.5172 19.0172C11.634 18.9003 11.7259 18.7611 11.7874 18.6077C11.8489 18.4544 11.8787 18.2902 11.875 18.125V16.8484C12.3058 16.7706 12.6966 16.5465 12.9813 16.2138C13.266 15.8812 13.4271 15.4605 13.4375 15.0228L14.375 2.21031C14.375 2.21031 14.375 2.19562 14.375 2.1875V0.9375C14.375 0.85462 14.3421 0.775134 14.2835 0.716529C14.2249 0.657924 14.1454 0.625 14.0625 0.625ZM10.625 18.75H9.375C9.2919 18.7539 9.2089 18.7404 9.13132 18.7103C9.05373 18.6803 8.98327 18.6344 8.92445 18.5756C8.86562 18.5167 8.81972 18.4463 8.78968 18.3687C8.75964 18.2911 8.74613 18.2081 8.75 18.125H11.25C11.2539 18.2081 11.2404 18.2911 11.2103 18.3687C11.1803 18.4463 11.1344 18.5167 11.0756 18.5756C11.0167 18.6344 10.9463 18.6803 10.8687 18.7103C10.7911 18.7404 10.7081 18.7539 10.625 18.75ZM11.25 17.5H8.75V16.875H11.25V17.5ZM12.8125 14.9797C12.8149 15.3129 12.6854 15.6334 12.4523 15.8715C12.2191 16.1095 11.9013 16.2456 11.5681 16.25H8.43188C8.09834 16.2454 7.78021 16.1089 7.54702 15.8704C7.31384 15.6319 7.18458 15.3107 7.1875 14.9772L6.53531 6.07531C6.81205 5.93748 7.06621 5.75835 7.28906 5.54406C7.43317 5.37973 7.60942 5.24667 7.80694 5.1531C8.00446 5.05953 8.21906 5.00742 8.4375 5C8.63783 5.00052 8.83517 5.04871 9.01318 5.1406C9.1912 5.23249 9.34479 5.36543 9.46125 5.52844C9.63613 5.75317 9.86004 5.935 10.1159 6.06005C10.3717 6.1851 10.6527 6.25007 10.9375 6.25C11.5424 6.23262 12.1174 5.98321 12.5434 5.55344C12.8158 5.27843 13.164 5.09086 13.5434 5.01469L12.8125 14.9797ZM13.5878 4.38594C13.0428 4.44646 12.5341 4.68862 12.1434 5.07344C11.8282 5.4067 11.3958 5.60446 10.9375 5.625C10.7372 5.62448 10.5398 5.57629 10.3618 5.4844C10.1838 5.39251 10.0302 5.25957 9.91375 5.09656C9.73887 4.87183 9.51496 4.69 9.25912 4.56495C9.00328 4.4399 8.72227 4.37493 8.4375 4.375C8.14308 4.38049 7.85283 4.44561 7.58428 4.5664C7.31573 4.6872 7.07444 4.86117 6.875 5.07781C6.7522 5.1904 6.62213 5.2948 6.48562 5.39031L6.27375 2.5H13.7262L13.5878 4.38594ZM13.75 1.875H6.25V1.25H13.75V1.875Z" fill="#3E4958"/>
<path d="M9.76 9.48718C9.53906 9.75187 8.4375 11.1103 8.4375 11.875C8.4375 12.2894 8.60212 12.6868 8.89515 12.9799C9.18817 13.2729 9.5856 13.4375 10 13.4375C10.4144 13.4375 10.8118 13.2729 11.1049 12.9799C11.3979 12.6868 11.5625 12.2894 11.5625 11.875C11.5625 11.1103 10.4609 9.75187 10.24 9.48718C10.2097 9.45362 10.1726 9.42679 10.1313 9.40842C10.09 9.39006 10.0452 9.38057 10 9.38057C9.95476 9.38057 9.91003 9.39006 9.86869 9.40842C9.82735 9.42679 9.79032 9.45362 9.76 9.48718ZM10 12.8125C9.75136 12.8125 9.5129 12.7137 9.33709 12.5379C9.16127 12.3621 9.0625 12.1236 9.0625 11.875C9.0625 11.5397 9.55313 10.7722 10 10.1875C10.4472 10.7709 10.9375 11.5381 10.9375 11.875C10.9375 12.1236 10.8387 12.3621 10.6629 12.5379C10.4871 12.7137 10.2486 12.8125 10 12.8125Z" fill="#3E4958"/>
<path d="M7.1875 6.25H7.8125V6.875H7.1875V6.25Z" fill="#3E4958"/>
<path d="M8.4375 7.1875H9.0625V7.8125H8.4375V7.1875Z" fill="#3E4958"/>
</svg>
