<svg width="20" height="20" viewBox="0 0 20 20" fill="none" xmlns="http://www.w3.org/2000/svg">
<g clip-path="url(#clip0)">
<path d="M18.8224 11.3437C18.6989 11.2389 18.5141 11.2542 18.4095 11.3776C18.3048 11.501 18.32 11.6859 18.4434 11.7905C19.0775 12.3283 19.4132 12.9302 19.4141 13.5312C19.4146 13.9346 19.27 14.2757 18.9718 14.5738C18.4733 15.0724 17.5456 15.4438 16.2145 15.6777C15.0196 15.8877 13.5232 15.9896 11.6383 15.9858C8.72816 15.9819 6.67527 15.7301 5.39082 15.218C5.88559 14.866 6.41492 14.4435 6.98258 13.9476C7.15441 14.1532 7.40078 14.289 7.67695 14.3169C8.25055 14.3749 8.76672 13.9502 8.82207 13.3733C8.85906 12.9874 8.85988 12.5989 8.825 12.2161C9.33926 11.7031 9.80313 11.2188 10.2201 10.7594C10.4549 11.1613 10.6166 11.585 10.7014 12.0232C10.7738 12.3967 10.7916 12.7833 10.7544 13.1725C10.6994 13.749 11.1205 14.2652 11.6955 14.3233C12.2677 14.3811 12.7797 13.9597 12.8357 13.3788C12.8926 12.789 12.8651 12.1987 12.754 11.6243C12.6368 11.0193 12.426 10.4352 12.1264 9.88146C12.689 9.89904 13.2393 9.94478 13.7704 10.0176C14.2595 10.6374 14.5612 11.3122 14.6664 12.0253C14.722 12.4017 14.7225 12.7887 14.6677 13.1755C14.5867 13.749 14.9843 14.2837 15.5544 14.3673C16.12 14.4503 16.6564 14.0537 16.738 13.4761C16.8211 12.8882 16.82 12.2974 16.7348 11.72C16.6835 11.3726 16.601 11.029 16.4886 10.6925C16.78 10.8044 17.0578 10.9268 17.3193 11.0599C17.4613 11.1321 17.6389 11.0776 17.7132 10.9316C17.7866 10.7874 17.7292 10.611 17.585 10.5376C15.9749 9.71826 13.7492 9.26666 11.4615 9.28799C11.6191 9.08369 11.766 8.88459 11.9021 8.69041C12.7602 7.46635 13.1773 6.46322 13.1773 5.62377C13.1773 5.04658 12.9766 4.55365 12.5806 4.15881C11.7522 3.3326 10.3496 3.2024 8.63148 3.79213C6.98348 4.35775 5.21777 5.52502 3.65969 7.07885C1.40234 9.3301 0 11.9735 0 13.9775C0 14.8085 0.253008 15.5001 0.731719 15.9775C1.12879 16.3735 1.61707 16.5714 2.19277 16.5714C2.80223 16.5714 3.50965 16.3496 4.31047 15.9061C4.47461 15.8152 4.64316 15.7147 4.81609 15.6052C6.15215 16.2508 8.38695 16.5674 11.6375 16.5718C13.4954 16.5743 15.1143 16.466 16.3159 16.2548C17.7883 15.9961 18.7926 15.5817 19.3861 14.9881C19.7943 14.58 20.0008 14.0896 20 13.5304C19.9989 12.7522 19.5917 11.9961 18.8224 11.3437ZM15.7676 10.4458C15.956 10.8853 16.0868 11.342 16.1552 11.8055C16.2323 12.3273 16.2332 12.8618 16.1579 13.3941C16.1219 13.6488 15.8902 13.8244 15.6392 13.7875C15.3874 13.7506 15.2119 13.5128 15.2479 13.2575C15.3105 12.8151 15.3099 12.3717 15.2461 11.9397C15.1536 11.3128 14.9301 10.7143 14.5808 10.1525C14.9922 10.2335 15.3891 10.3314 15.7676 10.4458ZM8.23883 13.3173C8.21598 13.5564 8.02051 13.7366 7.78371 13.7366C7.63871 13.7366 7.50723 13.6701 7.42035 13.5575C7.69305 13.3099 7.97426 13.0463 8.26434 12.7663C8.26469 12.9499 8.25644 13.1339 8.23883 13.3173ZM12.1788 11.7356C12.2791 12.2548 12.304 12.7887 12.2525 13.3228C12.2279 13.5783 12.0043 13.7656 11.7521 13.7401C11.4991 13.7146 11.3132 13.4849 11.3377 13.2282C11.3803 12.7832 11.3597 12.3404 11.2767 11.9119C11.1677 11.3485 10.9494 10.8079 10.6272 10.3016C10.75 10.1606 10.8683 10.0218 10.9818 9.88549C11.1353 9.87967 11.2902 9.87541 11.4459 9.87389C11.8062 10.459 12.0527 11.0846 12.1788 11.7356ZM7.40812 4.971C7.8518 5.1485 8.2668 5.37877 8.64258 5.65787C9.06598 5.9724 9.44453 6.34967 9.76773 6.77928C9.91219 6.97131 9.88926 7.23611 9.71441 7.39525C9.51355 7.57803 9.19242 7.54506 9.02773 7.32611C8.7591 6.969 8.44516 6.65596 8.09465 6.39564C7.58617 6.01799 7.00523 5.75279 6.36145 5.60252C6.70961 5.36904 7.05949 5.15787 7.40812 4.971ZM1.65977 10.6181C2.11707 10.7762 2.54668 10.9896 2.93934 11.2547C3.37641 11.5499 3.77156 11.9099 4.11379 12.3247C4.26684 12.5102 4.25602 12.776 4.08848 12.9431C3.89641 13.1346 3.57434 13.116 3.40008 12.9048C3.11562 12.5601 2.78793 12.2613 2.42609 12.017C2.06398 11.7724 1.66398 11.5821 1.23441 11.4474C1.35977 11.1739 1.5018 10.8969 1.65977 10.6181ZM4.02664 15.3935C2.70676 16.1245 1.76434 16.1798 1.14547 15.5626C0.77418 15.1924 0.585938 14.659 0.585938 13.9775C0.585938 13.3789 0.733945 12.7027 1.00637 11.9901C1.40199 12.1087 1.76859 12.28 2.09812 12.5026C2.4134 12.7155 2.69937 12.9763 2.94809 13.2778C3.34094 13.7539 4.06738 13.7915 4.50223 13.3579C4.88496 12.9763 4.91227 12.3717 4.5657 11.9517C4.18773 11.4937 3.7509 11.0958 3.26727 10.7692C2.86562 10.4979 2.42926 10.2763 1.96691 10.1063C2.20703 9.72607 2.47453 9.34537 2.76719 8.96943C3.36566 9.00318 4.1848 9.1581 4.94023 9.66834C5.25555 9.88123 5.54148 10.1421 5.79016 10.4435C6.15945 10.891 6.82246 10.9569 7.26766 10.5929C7.71609 10.2263 7.77605 9.56369 7.40781 9.11748C7.17508 8.83541 6.91738 8.57361 6.64191 8.33935C6.51871 8.23459 6.33375 8.24947 6.22895 8.37275C6.1241 8.496 6.13906 8.68092 6.26234 8.78572C6.51164 8.99771 6.74496 9.23478 6.95582 9.49037C7.11953 9.68881 7.09309 9.97869 6.89672 10.1392C6.6998 10.3003 6.40613 10.2694 6.24207 10.0705C5.95762 9.72576 5.62996 9.42705 5.26813 9.18271C4.67469 8.78189 3.97273 8.52396 3.21305 8.42342C3.44543 8.15158 3.69035 7.88389 3.94688 7.62225C4.38125 7.72561 4.79625 7.87553 5.18227 8.06951C5.32449 8.141 5.50203 8.08564 5.57559 7.93932C5.64824 7.79475 5.58996 7.61865 5.44539 7.546C5.12414 7.38455 4.78496 7.25135 4.43285 7.14639C4.84289 6.76135 5.2648 6.40443 5.6927 6.07994C6.47652 6.17244 7.16672 6.43635 7.74523 6.866C8.05066 7.09287 8.32461 7.36619 8.55949 7.67838C8.93062 8.1717 9.65574 8.24088 10.1087 7.82865C10.5086 7.46475 10.5633 6.86221 10.2359 6.42705C9.87898 5.95256 9.46043 5.53553 8.99191 5.18752C8.71008 4.97822 8.40875 4.79357 8.09137 4.63514C8.33695 4.52564 8.58082 4.42908 8.8218 4.34635C9.47148 4.12334 10.063 4.01248 10.5787 4.01248C11.25 4.01248 11.7927 4.20045 12.167 4.57369C12.4527 4.85857 12.5915 5.20205 12.5915 5.62377C12.5915 6.32885 12.1982 7.24744 11.4224 8.35408C11.0347 8.90717 10.5477 9.55318 10.0467 10.0746C8.30109 11.8912 6.18668 14.1973 4.02664 15.3935Z" fill="#3E4958"/>
</g>
<defs>
<clipPath id="clip0">
<rect width="20" height="20" fill="white"/>
</clipPath>
</defs>
</svg>
