<svg width="20" height="20" viewBox="0 0 20 20" fill="none" xmlns="http://www.w3.org/2000/svg">
<g clip-path="url(#clip0)">
<path d="M19.1442 7.08421V5.87602C19.1442 5.86763 19.1437 5.85923 19.143 5.85099C19.1428 5.84977 19.143 5.8484 19.1428 5.84703C19.1417 5.83574 19.1399 5.82475 19.1376 5.81407C19.1372 5.81224 19.1367 5.81041 19.1362 5.80873C19.1341 5.79973 19.1315 5.79072 19.1286 5.78202C19.1283 5.78096 19.128 5.77989 19.1277 5.77882L18.1342 2.95014C18.1144 2.89368 18.0872 2.84165 18.0544 2.79389C18.0545 2.79008 18.055 2.78641 18.055 2.78245V0.999605C18.055 0.426942 17.589 -0.0390625 17.0163 -0.0390625H2.96784C2.39502 -0.0390625 1.92917 0.426942 1.92917 0.999605V2.78245C1.92917 2.78626 1.92963 2.79008 1.92978 2.79389C1.89682 2.8415 1.86966 2.89368 1.84983 2.95014L0.856323 5.77882C0.856018 5.77989 0.855866 5.78096 0.855408 5.78202C0.852509 5.79072 0.850067 5.79957 0.847931 5.80842C0.847473 5.81025 0.846863 5.81224 0.846405 5.81407C0.844116 5.82475 0.842438 5.83574 0.841217 5.84687C0.841064 5.8484 0.841217 5.85008 0.841064 5.8516C0.840302 5.85969 0.839844 5.86778 0.839844 5.87587V7.08421C0.839844 7.87004 1.28128 8.55455 1.92917 8.90337V17.0317H1.60706C1.18408 17.0317 0.839844 17.3758 0.839844 17.799V19.1936C0.839844 19.6167 1.18408 19.961 1.60706 19.961H18.377C18.8001 19.961 19.1442 19.6167 19.1442 19.1936V17.799C19.1442 17.3758 18.8001 17.0317 18.377 17.0317H18.055V8.90352C18.7027 8.5547 19.1442 7.87004 19.1442 7.08421ZM17.0795 8.5631C16.2639 8.5631 15.6006 7.89964 15.6006 7.08421V6.16899H18.5584V7.08421C18.5582 7.89964 17.8949 8.5631 17.0795 8.5631ZM4.96949 6.16899H6.00953C6.17143 6.16899 6.3025 6.03776 6.3025 5.87602C6.3025 5.71412 6.17143 5.58305 6.00953 5.58305H5.03861L5.57115 3.09037H8.12212L7.9471 5.58305H7.10328C6.94154 5.58305 6.81031 5.71412 6.81031 5.87602C6.81031 6.03776 6.94154 6.16899 7.10328 6.16899H7.92726V7.08421V7.08436C7.92711 7.8998 7.26365 8.5631 6.44838 8.5631C5.63294 8.5631 4.96949 7.89964 4.96949 7.08421C4.96949 7.08406 4.96949 7.08391 4.96949 7.08375V6.16899ZM14.4211 3.09037L14.9465 5.58305H12.0371L11.8619 3.09037H14.4211ZM11.2746 3.09037L11.4496 5.58305H8.53441L8.70958 3.09037H11.2746ZM8.5132 6.16899H11.471V7.08421C11.471 7.89964 10.8075 8.5631 9.99208 8.5631C9.17665 8.5631 8.5132 7.89964 8.5132 7.08421C8.5132 7.08406 8.5132 7.08391 8.5132 7.08375V6.16899ZM12.0569 6.16899H15.0145V7.08421C15.0145 7.89964 14.3512 8.5631 13.5358 8.5631C12.7202 8.5631 12.0569 7.89964 12.0569 7.08421V6.16899ZM18.4378 5.58305H15.5452L15.02 3.09037H17.5052C17.5394 3.09037 17.5701 3.11204 17.5814 3.14423L18.4378 5.58305ZM2.96784 0.546876H17.0163C17.266 0.546876 17.4691 0.749971 17.4691 0.999605V2.50428H14.6584C14.6578 2.50428 14.6572 2.50428 14.6566 2.50428H2.51511V0.999605C2.51511 0.749971 2.7182 0.546876 2.96784 0.546876ZM2.40265 3.14423C2.41394 3.11188 2.44461 3.09037 2.47879 3.09037H4.97193L4.43955 5.58305H1.54617L2.40265 3.14423ZM1.42578 7.08421V6.16899H4.38355V7.08421V7.08436C4.3834 7.8998 3.7201 8.5631 2.90467 8.5631C2.08924 8.5631 1.42578 7.89964 1.42578 7.08421ZM17.4691 17.0317H15.2085C15.0466 17.0317 14.9155 17.163 14.9155 17.3247C14.9155 17.4865 15.0466 17.6177 15.2085 17.6177H17.7616H17.762H17.7623H18.377C18.4769 17.6177 18.5582 17.699 18.5582 17.799V19.1938C18.5582 19.2937 18.4769 19.375 18.377 19.375H1.60706C1.50711 19.375 1.42578 19.2937 1.42578 19.1938V17.799C1.42578 17.699 1.50711 17.6177 1.60706 17.6177H2.22168H2.22214H2.22245H14.1217C14.2835 17.6177 14.4147 17.4865 14.4147 17.3247C14.4147 17.163 14.2835 17.0317 14.1217 17.0317H8.01942V10.3694C8.01942 9.98263 7.70479 9.66799 7.31798 9.66799H3.80234C3.41568 9.66799 3.1009 9.98263 3.1009 10.3694V17.0317H2.51496V9.11165C2.6413 9.13591 2.77146 9.14904 2.90467 9.14904C3.65616 9.14904 4.31535 8.74529 4.67652 8.14348C5.0377 8.74529 5.69673 9.14904 6.44838 9.14904C7.19987 9.14904 7.8589 8.74529 8.22008 8.14348C8.58141 8.74529 9.24043 9.14904 9.99193 9.14904C10.7436 9.14904 11.4026 8.74529 11.7638 8.14348C12.1251 8.74529 12.7841 9.14904 13.5356 9.14904C14.2871 9.14904 14.9463 8.74529 15.3075 8.14348C15.6687 8.74529 16.3279 9.14904 17.0793 9.14904C17.2126 9.14904 17.3427 9.13591 17.4689 9.11165V17.0317H17.4691ZM7.43349 17.0317H3.68699V10.3694C3.68699 10.3058 3.73871 10.2539 3.8025 10.2539H7.31813C7.38176 10.2539 7.43364 10.3057 7.43364 10.3694V17.0317H7.43349Z" fill="#3E4958"/>
<path d="M16.1817 9.66798H9.21878C8.83212 9.66798 8.51733 9.98262 8.51733 10.3694V14.7603C8.51733 15.1471 8.83197 15.4618 9.21878 15.4618H16.1817C16.5685 15.4618 16.8831 15.1471 16.8831 14.7603V10.3694C16.8831 9.98262 16.5683 9.66798 16.1817 9.66798ZM16.2972 14.7603C16.2972 14.8241 16.2453 14.8758 16.1817 14.8758H9.21878C9.15515 14.8758 9.10327 14.8241 9.10327 14.7603V10.3694C9.10327 10.3058 9.15515 10.2539 9.21878 10.2539H16.1817C16.2453 10.2539 16.2972 10.3057 16.2972 10.3694V14.7603Z" fill="#3E4958"/>
</g>
<defs>
<clipPath id="clip0">
<rect width="19.961" height="20" fill="white"/>
</clipPath>
</defs>
</svg>
