<svg width="20" height="20" viewBox="0 0 20 20" fill="none" xmlns="http://www.w3.org/2000/svg">
<path d="M4.0625 11.5625C4.95344 11.5625 5.625 11.1594 5.625 10.625C5.625 10.0906 4.95344 9.6875 4.0625 9.6875C3.17156 9.6875 2.5 10.0906 2.5 10.625C2.5 11.1594 3.17156 11.5625 4.0625 11.5625ZM4.0625 10.3125C4.6675 10.3125 5 10.5472 5 10.625C5 10.7028 4.6675 10.9375 4.0625 10.9375C3.4575 10.9375 3.125 10.7028 3.125 10.625C3.125 10.5472 3.4575 10.3125 4.0625 10.3125Z" fill="#3E4958"/>
<path d="M9.56234 16.625L8.81234 16.0625C8.06047 15.4981 6.9389 15.4984 6.18765 16.0625L5.74453 16.3947C5.45547 15.925 4.94422 15.625 4.37484 15.625C4.27453 15.625 4.18015 15.6731 4.12109 15.755C4.06234 15.8366 4.0464 15.9413 4.07828 16.0366L4.35797 16.875L4.07828 17.7137C4.04609 17.8091 4.06234 17.9137 4.12109 17.9953C4.18015 18.0769 4.27453 18.125 4.37484 18.125C4.94422 18.125 5.45578 17.8247 5.74453 17.3553L6.18734 17.6875C6.56328 17.9697 7.02922 18.125 7.49984 18.125C7.97047 18.125 8.4364 17.9694 8.81203 17.6875L9.56203 17.125C9.64078 17.0659 9.68703 16.9734 9.68703 16.875C9.68703 16.7766 9.64109 16.6841 9.56234 16.625ZM4.8489 17.3794L4.9839 16.9741C5.00547 16.9097 5.00547 16.8406 4.9839 16.7762L4.8489 16.3709C5.04765 16.4797 5.20703 16.6556 5.2939 16.8753C5.20703 17.0944 5.04765 17.2706 4.8489 17.3794ZM8.43703 17.1875C7.90047 17.5906 7.09953 17.5909 6.56234 17.1875L6.14578 16.875L6.56265 16.5625C7.09922 16.1594 7.90015 16.1591 8.43734 16.5625L8.8539 16.875L8.43703 17.1875Z" fill="#3E4958"/>
<path d="M14.375 0.3125C12.5375 0.3125 9.0625 0.639063 9.0625 1.875V8.55313C8.35719 8.47656 7.61531 8.4375 6.875 8.4375C3.61375 8.4375 0.3125 9.18875 0.3125 10.625V17.5C0.3125 18.9363 3.61375 19.6875 6.875 19.6875C10.1362 19.6875 13.4375 18.9363 13.4375 17.5V17.1634C13.7466 17.1778 14.0594 17.1875 14.375 17.1875C16.2125 17.1875 19.6875 16.8609 19.6875 15.625V1.875C19.6875 0.639063 16.2125 0.3125 14.375 0.3125ZM14.375 0.9375C17.4197 0.9375 19.0625 1.60281 19.0625 1.875C19.0625 2.14719 17.4197 2.8125 14.375 2.8125C11.3303 2.8125 9.6875 2.14719 9.6875 1.875C9.6875 1.60281 11.3303 0.9375 14.375 0.9375ZM6.875 9.0625C10.5534 9.0625 12.8125 9.9725 12.8125 10.625C12.8125 11.2775 10.5534 12.1875 6.875 12.1875C3.19656 12.1875 0.9375 11.2775 0.9375 10.625C0.9375 9.9725 3.19656 9.0625 6.875 9.0625ZM13.4375 10.625C13.4375 10.3272 13.2938 10.0591 13.0394 9.82094C13.2109 9.73438 13.3997 9.6875 13.5938 9.6875H13.9062C14.1509 9.6875 14.3881 9.75906 14.5916 9.895L14.7491 10C15.0553 10.2044 15.4125 10.3125 15.7812 10.3125C16.15 10.3125 16.5069 10.2044 16.8134 10L16.8578 9.97031C16.7169 11.2159 15.6578 12.1875 14.375 12.1875C14.0484 12.1875 13.7347 12.1228 13.4375 12.0019V10.625ZM16.4666 9.48C16.0594 9.75156 15.5028 9.75156 15.0956 9.48L14.9384 9.375C14.6322 9.17062 14.275 9.0625 13.9062 9.0625H13.5938C13.225 9.0625 12.8681 9.17062 12.5616 9.375L12.4784 9.43031C12.3122 9.34062 12.1275 9.25688 11.9266 9.17937C12.1625 8.02813 13.1747 7.1875 14.375 7.1875C15.5994 7.1875 16.6187 8.07281 16.8322 9.23625L16.4666 9.48ZM2.5 18.5172V14.1641C3.68344 14.4988 5.2475 14.6875 6.875 14.6875C8.50281 14.6875 10.0669 14.4988 11.25 14.1641V18.5172C10.2247 18.8306 8.73125 19.0625 6.875 19.0625C5.01875 19.0625 3.52531 18.8306 2.5 18.5172ZM11.875 18.2925V13.7403C11.875 13.6397 11.8266 13.545 11.7444 13.4862C11.6622 13.4275 11.5572 13.4122 11.4619 13.4444C10.3063 13.8372 8.63469 14.0625 6.875 14.0625C5.11594 14.0625 3.44406 13.8372 2.28813 13.4444C2.1925 13.4119 2.0875 13.4319 2.00563 13.4909C1.92344 13.5497 1.875 13.6494 1.875 13.75V18.2925C1.26656 18.0338 0.9375 17.7484 0.9375 17.5V11.6138C2.04656 12.4038 4.47094 12.8125 6.875 12.8125C9.27906 12.8125 11.7034 12.4038 12.8125 11.6138V17.5C12.8125 17.7484 12.4834 18.0338 11.875 18.2925ZM14.375 16.5625C14.0591 16.5625 13.7463 16.5525 13.4375 16.5378V14.0384C13.7466 14.0528 14.0594 14.0625 14.375 14.0625C15.7312 14.0625 17.9778 13.8841 19.0625 13.2941V15.625C19.0625 15.8972 17.4197 16.5625 14.375 16.5625ZM14.375 13.4375C14.0591 13.4375 13.7463 13.4275 13.4375 13.4128V12.665C13.7391 12.76 14.0519 12.8125 14.375 12.8125C16.0981 12.8125 17.5 11.4106 17.5 9.6875C17.5 7.96438 16.0981 6.5625 14.375 6.5625C12.9009 6.5625 11.6556 7.57844 11.3331 8.97969C10.8394 8.83563 10.2822 8.71969 9.6875 8.63281V5.16906C10.7722 5.75906 13.0188 5.9375 14.375 5.9375C15.7312 5.9375 17.9778 5.75906 19.0625 5.16906V12.5C19.0625 12.7722 17.4197 13.4375 14.375 13.4375ZM14.375 5.3125C11.3303 5.3125 9.6875 4.64719 9.6875 4.375V2.66906C10.7722 3.25906 13.0188 3.4375 14.375 3.4375C15.7312 3.4375 17.9778 3.25906 19.0625 2.66906V4.375C19.0625 4.64719 17.4197 5.3125 14.375 5.3125Z" fill="#3E4958"/>
</svg>
