<svg width="14" height="14" viewBox="0 0 14 14" fill="none" xmlns="http://www.w3.org/2000/svg">
<g clip-path="url(#clip0)">
<path d="M3.73363 5.71667C3.21889 5.71667 2.80029 6.13527 2.80029 6.65001C2.80029 7.16474 3.21889 7.58334 3.73363 7.58334C4.24836 7.58334 4.66696 7.16474 4.66696 6.65001C4.66696 6.13527 4.24836 5.71667 3.73363 5.71667ZM3.73363 7.11668C3.47626 7.11668 3.26696 6.90738 3.26696 6.65001C3.26696 6.39264 3.47626 6.18334 3.73363 6.18334C3.99099 6.18334 4.20029 6.39264 4.20029 6.65001C4.20029 6.90738 3.99099 7.11668 3.73363 7.11668Z" fill="#FFC600"/>
<path d="M7.00023 5.71667C6.48549 5.71667 6.06689 6.13527 6.06689 6.65001C6.06689 7.16474 6.48549 7.58334 7.00023 7.58334C7.51496 7.58334 7.93356 7.16474 7.93356 6.65001C7.93356 6.13527 7.51496 5.71667 7.00023 5.71667ZM7.00023 7.11668C6.74286 7.11668 6.53356 6.90738 6.53356 6.65001C6.53356 6.39264 6.74286 6.18334 7.00023 6.18334C7.25759 6.18334 7.46689 6.39264 7.46689 6.65001C7.46689 6.90738 7.25759 7.11668 7.00023 7.11668Z" fill="#FFC600"/>
<path d="M10.2668 5.71667C9.7521 5.71667 9.3335 6.13527 9.3335 6.65001C9.3335 7.16474 9.7521 7.58334 10.2668 7.58334C10.7816 7.58334 11.2002 7.16474 11.2002 6.65001C11.2002 6.13527 10.7816 5.71667 10.2668 5.71667ZM10.2668 7.11668C10.0095 7.11668 9.80016 6.90738 9.80016 6.65001C9.80016 6.39264 10.0095 6.18334 10.2668 6.18334C10.5242 6.18334 10.7335 6.39264 10.7335 6.65001C10.7335 6.90738 10.5242 7.11668 10.2668 7.11668Z" fill="#FFC600"/>
<path d="M7.00002 0.349976C3.14022 0.349976 1.88128e-05 3.17611 1.88128e-05 6.64998C1.88128e-05 7.86424 0.384085 9.04048 1.11255 10.0576C0.974652 11.5829 0.605052 12.7152 0.0683855 13.2517C-0.00254785 13.3226 -0.0202812 13.4311 0.0245188 13.5207C0.0641855 13.6007 0.145852 13.65 0.233352 13.65C0.244085 13.65 0.254819 13.6493 0.265785 13.6476C0.360285 13.6343 2.55549 13.3184 4.14332 12.4019C5.04492 12.7656 6.00532 12.95 7.00002 12.95C10.8598 12.95 14 10.1238 14 6.64998C14 3.17611 10.8598 0.349976 7.00002 0.349976ZM7.00002 12.4833C6.18639 12.4833 5.39795 12.3505 4.64918 12.0911C5.60002 11.497 5.60212 11.455 5.60142 11.3173C5.60095 11.2359 5.55685 11.1582 5.48685 11.1164C5.38068 11.0527 5.24395 11.0831 5.17465 11.1841C5.04678 11.2856 4.49705 11.6379 4.00472 11.942H4.00449C2.96242 12.5713 1.56009 12.9224 0.782152 13.0809C1.29595 12.2245 1.50339 10.9844 1.58482 10.0102C1.58949 9.95398 1.57362 9.89798 1.54025 9.85224C0.837919 8.90001 0.466685 7.79238 0.466685 6.64998C0.466685 3.43348 3.39759 0.816642 7.00002 0.816642C10.6025 0.816642 13.5334 3.43348 13.5334 6.64998C13.5334 9.86648 10.6025 12.4833 7.00002 12.4833Z" fill="#FFC600"/>
</g>
<defs>
<clipPath id="clip0">
<rect width="14" height="14" fill="white"/>
</clipPath>
</defs>
</svg>
