<svg width="20" height="20" viewBox="0 0 20 20" fill="none" xmlns="http://www.w3.org/2000/svg">
<path d="M17.3334 14H16.8114C16.4453 14.0003 16.0843 14.0855 15.7567 14.249C15.2801 14.4859 14.72 14.4859 14.2434 14.249C14.0533 14.1557 13.8515 14.0884 13.6434 14.049L14.2931 9H15.0001C15.1842 9 15.3334 8.85075 15.3334 8.66667V7.33333C15.3334 7.14925 15.1842 7 15.0001 7H13.6667V6C13.6667 5.91158 13.6316 5.82683 13.5691 5.76433L12.0001 4.19533V3.16L12.5054 2.756L13.3684 4.48233L13.9651 4.18433L13.0377 2.33L13.4501 2H14.6667C14.8508 2 15.0001 1.85075 15.0001 1.66667V0.333333C15.0001 0.14925 14.8508 0 14.6667 0H11.3334C9.67741 0.002 8.33541 1.344 8.33341 3C8.33341 3.18408 8.48266 3.33333 8.66675 3.33333H9.33341V4.19533L8.43108 5.09767C8.36858 5.16017 8.33341 5.24492 8.33341 5.33333V7H7.66675V4.33333C7.66625 4.29204 7.658 4.25125 7.64241 4.213C7.63633 4.20004 7.62941 4.18746 7.62175 4.17533C7.61375 4.15788 7.60437 4.14104 7.59375 4.125L6.33341 2.55V0.333333C6.33341 0.14925 6.18416 0 6.00008 0H4.00008C3.816 0 3.66675 0.14925 3.66675 0.333333V2.55L2.40641 4.125C2.39579 4.14104 2.38641 4.15788 2.37841 4.17533C2.37075 4.18746 2.36383 4.20004 2.35775 4.213C2.34216 4.25125 2.33391 4.29204 2.33341 4.33333V7H1.00008C0.815998 7 0.666748 7.14925 0.666748 7.33333V8.66667C0.666748 8.85075 0.815998 9 1.00008 9H1.70708L3.00275 19.0427C3.02421 19.2089 3.16579 19.3334 3.33341 19.3333H11.1801C11.5581 19.7571 12.0989 19.9996 12.6667 20H13.1887C13.5548 19.9997 13.9158 19.9145 14.2434 19.751C14.72 19.5141 15.2801 19.5141 15.7567 19.751C16.0843 19.9145 16.4453 19.9997 16.8114 20H17.3334C18.4375 19.9989 19.3323 19.1041 19.3334 18V16C19.3323 14.8959 18.4375 14.0011 17.3334 14ZM13.6667 0.666667H14.3334V1.33333H13.6667V0.666667ZM14.6667 7.66667V8.33333H10.0001V7.66667H14.6667ZM9.02375 2.66667C9.19096 1.51938 10.174 0.668125 11.3334 0.666667H13.0001V1.50667L11.5497 2.66667H9.02375ZM11.3334 3.33333V4H10.0001V3.33333H11.3334ZM9.00008 5.47133L9.80475 4.66667H11.5287L13.0001 6.138V7H9.00008V5.47133ZM8.66675 7.66667H9.33341V10C9.33271 10.127 9.40421 10.2432 9.51775 10.3L11.5177 11.3C11.6153 11.3481 11.6892 11.4335 11.7227 11.537C11.7573 11.648 11.7453 11.7683 11.6894 11.8703C11.5935 12.0628 11.3597 12.141 11.1673 12.0451C11.167 12.045 11.1667 12.0448 11.1664 12.0447L9.81308 11.368C9.64766 11.2872 9.44808 11.3558 9.36725 11.5212C9.34512 11.5665 9.33354 11.6163 9.33341 11.6667V15C9.33341 15.3682 9.03496 15.6667 8.66675 15.6667V12.6667H8.00008V15.6667H7.33341V12.6667H6.66675V15.6667H6.00008V12.6667H5.33341V15.6667C4.96521 15.6667 4.66675 15.3682 4.66675 15V7.66667H8.66675ZM4.33341 0.666667H5.66675V2.33333H4.33341V0.666667ZM4.16008 3H5.84008L6.64008 4H3.36008L4.16008 3ZM3.00008 4.66667H7.00008V7H3.00008V4.66667ZM1.33341 8.33333V7.66667H4.00008V8.33333H1.33341ZM10.6667 16V18C10.6673 18.2273 10.7068 18.4527 10.7834 18.6667H3.62641L2.37908 9H4.00008V15C4.00008 15.7364 4.59704 16.3333 5.33341 16.3333H8.66675C9.40312 16.3333 10.0001 15.7364 10.0001 15V12.206L10.8707 12.6413C11.3969 12.901 12.0339 12.685 12.2935 12.1589C12.2946 12.1567 12.2957 12.1545 12.2967 12.1523C12.4259 11.8964 12.4478 11.5995 12.3577 11.3273C12.2689 11.055 12.0743 10.83 11.8177 10.7027L10.0001 9.794V9H13.6211L12.9757 14H12.6667C11.5626 14.0011 10.6678 14.8959 10.6667 16ZM18.6667 18C18.6667 18.7364 18.0698 19.3333 17.3334 19.3333H16.8114C16.5489 19.333 16.29 19.2718 16.0551 19.1547C15.3905 18.8245 14.6097 18.8245 13.9451 19.1547C13.7102 19.2718 13.4513 19.333 13.1887 19.3333H12.6667C11.9304 19.3333 11.3334 18.7364 11.3334 18V17.4867C11.699 17.817 12.1741 17.9999 12.6667 18H13.1887C13.5548 17.9997 13.9158 17.9145 14.2434 17.751C14.72 17.5141 15.2801 17.5141 15.7567 17.751C16.0843 17.9145 16.4453 17.9997 16.8114 18H17.3334C17.8261 17.9999 18.3012 17.817 18.6667 17.4867V18ZM17.3334 17.3333H16.8114C16.5489 17.333 16.29 17.2718 16.0551 17.1547C15.3905 16.8245 14.6097 16.8245 13.9451 17.1547C13.7102 17.2718 13.4513 17.333 13.1887 17.3333H12.6667C11.9304 17.3333 11.3334 16.7364 11.3334 16C11.3334 15.2636 11.9304 14.6667 12.6667 14.6667H13.1887C13.4513 14.667 13.7102 14.7282 13.9451 14.8453C14.6097 15.1753 15.3905 15.1753 16.0551 14.8453C16.29 14.7282 16.5489 14.667 16.8114 14.6667H17.3334C18.0698 14.6667 18.6667 15.2636 18.6667 16C18.6667 16.7364 18.0698 17.3333 17.3334 17.3333Z" fill="#3E4958"/>
<path d="M17.6667 15.3333H17V16H17.6667V15.3333Z" fill="#3E4958"/>
<path d="M14.3334 15.3333H13.6667V16H14.3334V15.3333Z" fill="#3E4958"/>
<path d="M12.9999 15.6667H12.3333V16.3333H12.9999V15.6667Z" fill="#3E4958"/>
<path d="M16.3334 15.6667H15.6667V16.3333H16.3334V15.6667Z" fill="#3E4958"/>
</svg>
