<svg width="14" height="14" viewBox="0 0 14 14" fill="none" xmlns="http://www.w3.org/2000/svg">
<path d="M7.00015 2.2826C7.16754 2.2826 7.3045 2.14564 7.3045 1.97825V1.82608C7.3045 1.65868 7.16754 1.52173 7.00015 1.52173C6.83276 1.52173 6.6958 1.65868 6.6958 1.82608V1.97825C6.6958 2.14564 6.83276 2.2826 7.00015 2.2826Z" fill="#FFC600"/>
<path d="M7.00015 11.7174C6.83276 11.7174 6.6958 11.8544 6.6958 12.0218V12.1739C6.6958 12.3413 6.83276 12.4783 7.00015 12.4783C7.16754 12.4783 7.3045 12.3413 7.3045 12.1739V12.0218C7.3045 11.8544 7.16754 11.7174 7.00015 11.7174Z" fill="#FFC600"/>
<path d="M1.97849 6.69568H1.82632C1.65893 6.69568 1.52197 6.83264 1.52197 7.00003C1.52197 7.16742 1.65893 7.30437 1.82632 7.30437H1.97849C2.14588 7.30437 2.28284 7.16742 2.28284 7.00003C2.28284 6.83264 2.14588 6.69568 1.97849 6.69568Z" fill="#FFC600"/>
<path d="M12.1738 6.69568H12.0216C11.8542 6.69568 11.7173 6.83264 11.7173 7.00003C11.7173 7.16742 11.8542 7.30437 12.0216 7.30437H12.1738C12.3412 7.30437 12.4782 7.16742 12.4782 7.00003C12.4782 6.83264 12.3412 6.69568 12.1738 6.69568Z" fill="#FFC600"/>
<path d="M3.56085 3.13476C3.43911 3.01302 3.2565 3.01302 3.13476 3.13476C3.01302 3.2565 3.01302 3.43911 3.13476 3.56085L3.24128 3.66737C3.30215 3.72824 3.37824 3.75867 3.45433 3.75867C3.53042 3.75867 3.6065 3.72824 3.66737 3.66737C3.78911 3.54563 3.78911 3.36302 3.66737 3.24128L3.56085 3.13476Z" fill="#FFC600"/>
<path d="M3.24128 10.3326L3.13476 10.4392C3.01302 10.5609 3.01302 10.7435 3.13476 10.8653C3.19563 10.9261 3.27172 10.9566 3.34781 10.9566C3.42389 10.9566 3.49998 10.9261 3.56085 10.8653L3.66737 10.7587C3.78911 10.637 3.78911 10.4544 3.66737 10.3326C3.54563 10.2109 3.36302 10.2109 3.24128 10.3326Z" fill="#FFC600"/>
<path d="M10.439 3.13476L10.3325 3.24128C10.2108 3.36302 10.2108 3.54563 10.3325 3.66737C10.3934 3.72824 10.4695 3.75867 10.5456 3.75867C10.6217 3.75867 10.6977 3.72824 10.7586 3.66737L10.8651 3.56085C10.9869 3.43911 10.9869 3.2565 10.8651 3.13476C10.7434 3.01302 10.5608 3.01302 10.439 3.13476Z" fill="#FFC600"/>
<path d="M7.30449 6.87823V4.10867C7.30449 3.94128 7.16754 3.80432 7.00015 3.80432C6.83276 3.80432 6.6958 3.94128 6.6958 4.10867V6.99997C6.6958 7.07606 6.72624 7.15215 6.7871 7.21302L10.1197 10.5456C10.1806 10.6065 10.2567 10.6369 10.3327 10.6369C10.4088 10.6369 10.4849 10.6065 10.5458 10.5456C10.6675 10.4239 10.6675 10.2413 10.5458 10.1195L7.30449 6.87823Z" fill="#FFC600"/>
<path d="M7 0C3.13478 0 0 3.13478 0 7C0 10.8652 3.13478 14 7 14C10.8652 14 14 10.8652 14 7C14 3.13478 10.8652 0 7 0ZM7 13.3913C3.46956 13.3913 0.608696 10.5304 0.608696 7C0.608696 3.46956 3.46956 0.608696 7 0.608696C10.5304 0.608696 13.3913 3.46956 13.3913 7C13.3913 10.5304 10.5304 13.3913 7 13.3913Z" fill="#FFC600"/>
</svg>
