<svg width="20" height="20" viewBox="0 0 20 20" fill="none" xmlns="http://www.w3.org/2000/svg">
<g clip-path="url(#clip0)">
<path d="M15.4167 7.91637H3.74978C3.06059 7.91637 2.49976 8.47721 2.49976 9.16641V9.99975C2.49976 12.9731 4.14229 15.6699 6.78568 17.0374C6.98986 17.1424 7.24151 17.0632 7.34737 16.8582C7.45237 16.6541 7.37319 16.4024 7.16818 16.2965C4.80313 15.0732 3.3331 12.6606 3.3331 9.99971V9.16637C3.3331 8.93636 3.51978 8.74968 3.74978 8.74968H15.4167C15.6467 8.74968 15.8334 8.93636 15.8334 9.16637V9.99971C15.8334 12.6606 14.3634 15.0732 11.9975 16.2957C11.7925 16.4015 11.7133 16.6532 11.8183 16.8574C11.8925 17.0007 12.0383 17.0832 12.1892 17.0832C12.2542 17.0832 12.3192 17.0682 12.38 17.0365C15.0242 15.6698 16.6668 12.9739 16.6668 9.99967V9.16633C16.6668 8.47721 16.1059 7.91637 15.4167 7.91637Z" fill="#3E4958"/>
<path d="M19.1358 16.5066C19.0708 16.3507 18.9191 16.2491 18.7508 16.2491H0.41705C0.248726 16.2491 0.0970428 16.3507 0.0320413 16.5066C-0.0329603 16.6624 0.0028609 16.8416 0.122043 16.9607L1.05624 17.8958C1.60794 18.4466 2.3396 18.75 3.11879 18.75H16.0474C16.8266 18.75 17.5591 18.4466 18.1116 17.8958L19.0458 16.9607C19.165 16.8416 19.2008 16.6624 19.1358 16.5066ZM17.5216 17.3066C17.1283 17.6999 16.6041 17.9166 16.0483 17.9166H3.11879C2.56296 17.9166 2.03877 17.6999 1.64544 17.3066L1.42211 17.0833H17.745L17.5216 17.3066Z" fill="#3E4958"/>
<path d="M19.1944 9.88392C18.0718 9.16222 16.2785 9.9456 16.0776 10.0364C15.8684 10.1322 15.7751 10.3789 15.8709 10.5889C15.9667 10.7989 16.2126 10.8914 16.4234 10.7956C16.8251 10.6131 18.1135 10.1806 18.7435 10.5864C19.0277 10.7689 19.1668 11.1231 19.1668 11.6665C19.1668 13.3348 15.8017 14.3432 14.5025 14.5915L14.2075 14.6498C13.9817 14.694 13.835 14.9132 13.8792 15.139C13.9184 15.3374 14.0925 15.4749 14.2875 15.4749C14.3142 15.4749 14.3408 15.4724 14.3683 15.4665L14.6609 15.409C14.8792 15.3674 20.0002 14.3632 20.0002 11.6665C20.0002 10.8281 19.7286 10.2289 19.1944 9.88392Z" fill="#3E4958"/>
<path d="M12.8277 4.42627C13.5052 3.57957 13.5052 2.25372 12.8277 1.40702C12.6835 1.22701 12.4226 1.19701 12.2418 1.34202C12.0618 1.4862 12.0326 1.74785 12.1768 1.92785C12.606 2.46368 12.606 3.36956 12.176 3.90708C11.4977 4.75378 11.4977 6.07963 12.176 6.92633C12.2585 7.02965 12.3793 7.08301 12.5018 7.08301C12.5926 7.08301 12.6851 7.05301 12.7618 6.99133C12.9418 6.84715 12.971 6.58464 12.8268 6.4055C12.3968 5.86962 12.3968 4.96378 12.8277 4.42627Z" fill="#3E4958"/>
<path d="M10.3239 4.4263C11.0022 3.57961 11.0022 2.25375 10.3239 1.40705C10.1805 1.22705 9.91802 1.19787 9.73802 1.34205C9.55802 1.48624 9.52884 1.74874 9.67302 1.92789C10.103 2.46372 10.103 3.3696 9.6722 3.90711C8.99468 4.75381 8.99468 6.07966 9.6722 6.92636C9.7547 7.02969 9.87552 7.08305 9.99803 7.08305C10.0888 7.08305 10.1805 7.05305 10.258 6.99136C10.438 6.84718 10.4672 6.58554 10.323 6.40553C9.89384 5.86966 9.89384 4.96382 10.3239 4.4263Z" fill="#3E4958"/>
<path d="M7.82741 4.42709C8.50493 3.58039 8.50493 2.25454 7.82741 1.40784C7.68408 1.22784 7.4224 1.19784 7.24157 1.34284C7.06238 1.48616 7.03324 1.74867 7.17657 1.92785C7.60576 2.46369 7.60576 3.36957 7.17575 3.90708C6.49741 4.75378 6.49741 6.07963 7.17575 6.92633C7.25825 7.02965 7.37907 7.08301 7.50158 7.08301C7.5924 7.08301 7.6849 7.05301 7.76159 6.99219C7.94159 6.84801 7.97077 6.5855 7.82659 6.40636C7.39657 5.86963 7.39657 4.96461 7.82741 4.42709Z" fill="#3E4958"/>
</g>
<defs>
<clipPath id="clip0">
<rect width="20" height="20" fill="white"/>
</clipPath>
</defs>
</svg>
