<svg width="20" height="20" viewBox="0 0 20 20" fill="none" xmlns="http://www.w3.org/2000/svg">
<path d="M18.4368 16.2894C18.4373 16.2761 18.4375 16.263 18.4375 16.25C18.4372 15.9186 18.3054 15.6009 18.071 15.3665C17.8367 15.1322 17.519 15.0004 17.1875 15V9.21875L18.3125 8.375C18.3516 8.34569 18.3833 8.30764 18.405 8.26389C18.4267 8.22013 18.4378 8.1719 18.4375 8.12306C18.4372 8.07422 18.4255 8.02613 18.4032 7.98265C18.381 7.93917 18.3489 7.90151 18.3094 7.8727L15.625 5.91102V2.5C15.7079 2.5 15.7874 2.46708 15.846 2.40847C15.9046 2.34987 15.9375 2.27038 15.9375 2.1875V0.9375C15.9375 0.85462 15.9046 0.775134 15.846 0.716529C15.7874 0.657924 15.7079 0.625 15.625 0.625H12.5C12.4172 0.625 12.3377 0.657924 12.2791 0.716529C12.2205 0.775134 12.1875 0.85462 12.1875 0.9375V2.1875C12.1875 2.27038 12.2205 2.34987 12.2791 2.40847C12.3377 2.46708 12.4172 2.5 12.5 2.5V3.62738L10.1844 1.9352C10.1309 1.89609 10.0663 1.87501 10 1.87501C9.93376 1.87501 9.86919 1.89609 9.81567 1.9352L1.69067 7.8727C1.65124 7.90151 1.61911 7.93917 1.59686 7.98265C1.57461 8.02613 1.56286 8.07422 1.56256 8.12306C1.56225 8.1719 1.5734 8.22013 1.59511 8.26389C1.61681 8.30764 1.64847 8.34569 1.68755 8.375L2.81255 9.21875V15C2.48114 15.0004 2.16341 15.1322 1.92907 15.3665C1.69473 15.6009 1.56292 15.9186 1.56255 16.25C1.56255 16.263 1.56278 16.2761 1.56325 16.2894C1.26844 16.3652 1.01142 16.5459 0.840414 16.7978C0.669407 17.0496 0.596165 17.3552 0.634431 17.6571C0.672696 17.9591 0.819839 18.2368 1.04825 18.438C1.27666 18.6392 1.57065 18.7501 1.87505 18.75H18.125C18.4294 18.7501 18.7234 18.6392 18.9518 18.438C19.1803 18.2368 19.3274 17.9591 19.3657 17.6571C19.4039 17.3552 19.3307 17.0496 19.1597 16.7978C18.9887 16.5459 18.7317 16.3652 18.4368 16.2894ZM12.8125 1.25H15.3125V1.875H12.8125V1.25ZM13.125 4.0625V2.5H15V5.4543L13.0955 4.0625H13.125ZM10 2.57453L17.5998 8.12828L16.8722 8.67402L10.1839 3.80977C10.1305 3.77091 10.0661 3.74998 10 3.74998C9.93399 3.74998 9.86964 3.77091 9.81622 3.80977L3.1279 8.67402L2.40024 8.12828L10 2.57453ZM1.25005 17.5C1.25022 17.3359 1.31484 17.1785 1.42999 17.0616C1.54514 16.9446 1.7016 16.8777 1.86567 16.875H1.86641C1.88239 16.8772 1.89837 16.8791 1.91465 16.8802C1.96644 16.8835 2.01822 16.8738 2.06533 16.852C2.11244 16.8303 2.1534 16.7971 2.1845 16.7556C2.21559 16.7141 2.23586 16.6654 2.24346 16.6141C2.25107 16.5628 2.24577 16.5104 2.22805 16.4616C2.20219 16.394 2.18848 16.3224 2.18755 16.25C2.18774 16.0843 2.25365 15.9254 2.37082 15.8083C2.48799 15.6911 2.64685 15.6252 2.81255 15.625V18.125H1.87505C1.70935 18.1248 1.55049 18.0589 1.43332 17.9417C1.31615 17.8246 1.25024 17.6657 1.25005 17.5ZM14.6875 18.125H10.9375V11.25H14.6875V18.125ZM15.3125 18.125V10.9375C15.3125 10.8546 15.2796 10.7751 15.221 10.7165C15.1624 10.6579 15.0829 10.625 15 10.625H10.625C10.5422 10.625 10.4627 10.6579 10.4041 10.7165C10.3455 10.7751 10.3125 10.8546 10.3125 10.9375V18.125H3.43755V9.22164L10 4.44891L16.5625 9.22164V18.125H15.3125ZM18.125 18.125H17.1875V15.625C17.3532 15.6252 17.5121 15.6911 17.6293 15.8083C17.7464 15.9254 17.8123 16.0843 17.8125 16.25C17.8116 16.3224 17.7979 16.3941 17.772 16.4618C17.7543 16.5105 17.749 16.5629 17.7566 16.6143C17.7642 16.6656 17.7845 16.7142 17.8156 16.7558C17.8467 16.7973 17.8876 16.8304 17.9348 16.8522C17.9819 16.8739 18.0337 16.8836 18.0854 16.8804C18.1017 16.8793 18.1177 16.8774 18.1337 16.8752H18.1344C18.3002 16.8764 18.4587 16.9434 18.575 17.0615C18.6913 17.1796 18.756 17.3391 18.7547 17.5048C18.7535 17.6706 18.6864 17.8291 18.5684 17.9454C18.4503 18.0617 18.2908 18.1264 18.125 18.1252V18.125Z" fill="#3E4958"/>
<path d="M8.75 10.625H5C4.91712 10.625 4.83763 10.6579 4.77903 10.7165C4.72042 10.7751 4.6875 10.8546 4.6875 10.9375V15.3125C4.6875 15.3954 4.72042 15.4749 4.77903 15.5335C4.83763 15.5921 4.91712 15.625 5 15.625H8.75C8.83288 15.625 8.91237 15.5921 8.97097 15.5335C9.02958 15.4749 9.0625 15.3954 9.0625 15.3125V10.9375C9.0625 10.8546 9.02958 10.7751 8.97097 10.7165C8.91237 10.6579 8.83288 10.625 8.75 10.625ZM8.4375 12.8125H7.1875V11.25H8.4375V12.8125ZM6.5625 11.25V12.8125H5.3125V11.25H6.5625ZM5.3125 13.4375H6.5625V15H5.3125V13.4375ZM7.1875 15V13.4375H8.4375V15H7.1875Z" fill="#3E4958"/>
<path d="M12.1638 14.4946C12.2299 14.3351 12.1541 14.1523 11.9947 14.0863C11.8352 14.0202 11.6524 14.0959 11.5864 14.2554C11.5203 14.4148 11.5961 14.5976 11.7555 14.6637C11.915 14.7297 12.0978 14.654 12.1638 14.4946Z" fill="#3E4958"/>
</svg>
