<svg width="16" height="16" viewBox="0 0 16 16" fill="none" xmlns="http://www.w3.org/2000/svg">
<path d="M7.99985 0C5.0591 0 2.6665 2.39259 2.6665 5.33334C2.6665 6.21616 2.88722 7.09147 3.30682 7.86784L7.70819 15.8281C7.76679 15.9342 7.87844 16 7.99985 16C8.12125 16 8.23291 15.9342 8.2915 15.8281L12.6945 7.86522C13.1125 7.09147 13.3332 6.21613 13.3332 5.33331C13.3332 2.39259 10.9406 0 7.99985 0ZM12.1095 7.54525L7.99985 14.9779L3.89179 7.54819C3.52622 6.87175 3.33319 6.10581 3.33319 5.33334C3.33319 2.76009 5.42663 0.666687 7.99985 0.666687C10.5731 0.666687 12.6665 2.76013 12.6665 5.33334C12.6665 6.10578 12.4735 6.87175 12.1095 7.54525Z" fill="#FFC600"/>
<path d="M7.99966 2.66663C6.52929 2.66663 5.33301 3.86291 5.33301 5.33328C5.33301 6.80369 6.52929 7.99997 7.99966 7.99997C9.47003 7.99997 10.6663 6.80369 10.6663 5.33331C10.6663 3.86294 9.47003 2.66663 7.99966 2.66663ZM7.99966 7.33331C6.89679 7.33331 5.99966 6.43619 5.99966 5.33331C5.99966 4.23044 6.89679 3.33331 7.99966 3.33331C9.10253 3.33331 9.99966 4.23044 9.99966 5.33331C9.99966 6.43616 9.10253 7.33331 7.99966 7.33331Z" fill="#FFC600"/>
</svg>
