<svg width="20" height="20" viewBox="0 0 20 20" fill="none" xmlns="http://www.w3.org/2000/svg">
<path d="M0 4.93779V15.0622C0 16.4573 1.13808 17.5954 2.53314 17.5954H10.7159C12.111 17.5954 13.249 16.4573 13.249 15.0622V13.4224C13.249 13.145 13.0247 12.9207 12.7473 12.9207C12.4699 12.9207 12.2456 13.145 12.2456 13.4224V15.0622C12.2456 15.9066 11.5562 16.596 10.7118 16.596H2.53314C1.68876 16.596 0.999388 15.9066 0.999388 15.0622V4.93779C0.999388 4.09341 1.68876 3.40404 2.53314 3.40404H10.7159C11.5603 3.40404 12.2496 4.09341 12.2496 4.93779V6.57761C12.2496 6.85499 12.474 7.07934 12.7514 7.07934C13.0288 7.07934 13.2531 6.85499 13.2531 6.57761V4.93779C13.2531 3.54273 12.115 2.40465 10.72 2.40465H2.53314C1.13808 2.40465 0 3.53865 0 4.93779Z" fill="#3E4958"/>
<path d="M15.7208 13.7732C15.8187 13.8711 15.9451 13.92 16.0757 13.92C16.2062 13.92 16.3326 13.8711 16.4305 13.7732L19.8529 10.3508C20.0487 10.155 20.0487 9.84091 19.8529 9.64511L16.4305 6.22272C16.2347 6.02692 15.9206 6.02692 15.7248 6.22272C15.5291 6.41851 15.5291 6.73261 15.7248 6.92841L18.2947 9.49826H8.91677C8.63939 9.49826 8.41504 9.72261 8.41504 9.99999C8.41504 10.2774 8.63939 10.5017 8.91677 10.5017H18.2906L15.7208 13.0716C15.525 13.2633 15.525 13.5815 15.7208 13.7732Z" fill="#3E4958"/>
</svg>
