<svg width="20" height="20" viewBox="0 0 20 20" fill="none" xmlns="http://www.w3.org/2000/svg">
<g clip-path="url(#clip0)">
<path d="M19.4715 15.3432C19.3853 15.2572 19.2906 15.1797 19.1898 15.113C19.0546 15.0237 18.8725 15.0609 18.7831 15.1961C18.6937 15.3313 18.7309 15.5134 18.8661 15.6027C19.2044 15.8264 19.4125 16.2112 19.4125 16.618C19.4125 16.9428 19.2861 17.2481 19.0564 17.4778C18.8149 17.7193 18.4812 17.8492 18.139 17.8325C18.0568 17.829 17.9761 17.8598 17.9176 17.9182C17.8592 17.9766 17.8281 18.057 17.832 18.1395C17.8481 18.481 17.7188 18.8154 17.4772 19.057C16.9978 19.5363 16.2317 19.5308 15.7578 19.057C15.5281 18.8273 15.4016 18.522 15.4016 18.1972C15.4016 17.8724 15.5281 17.5671 15.7578 17.3375C15.9191 17.1762 16.1695 16.9978 15.9392 16.7675C15.9387 16.767 14.7793 15.6077 14.7793 15.6077L15.6071 14.7799C15.6071 14.7799 16.7651 15.9378 16.767 15.9397C16.8909 16.0637 17.1091 16.0461 17.2119 15.9048C17.2498 15.8526 17.292 15.8033 17.3369 15.7583C17.4764 15.6188 17.6418 15.5181 17.8284 15.459C17.9829 15.41 18.0686 15.2451 18.0196 15.0906C17.9707 14.936 17.8057 14.8505 17.6512 14.8993C17.3955 14.9803 17.1583 15.1199 16.9619 15.3044L15.9247 14.2673C15.9247 14.2673 15.6523 13.5822 15.6068 13.2597C15.509 12.5653 15.4994 11.8744 15.5066 11.1773C15.512 10.6638 15.5171 10.1492 15.4677 9.63746C15.2168 7.04242 13.9012 4.76535 12.8417 3.31211C11.8621 1.96848 10.6218 0.785079 10.6007 0.763907C9.82429 -0.0124994 8.57609 -0.204648 7.08586 0.222657C5.65578 0.632774 4.15613 1.5707 2.86312 2.86371C1.57011 4.15672 0.632184 5.65637 0.222067 7.08645C-0.205277 8.57664 -0.0130891 9.82489 0.763239 10.6013C0.782458 10.6205 1.95769 11.8553 3.31144 12.8423C4.50254 13.7106 5.8082 14.4413 7.20359 14.9243C7.6116 15.0656 8.0273 15.185 8.4489 15.2785C9.12804 15.429 9.81941 15.5076 10.5173 15.5096C11.433 15.5123 12.3468 15.4789 13.2591 15.6074C13.5816 15.6529 14.2352 15.9181 14.2509 15.9217L15.3038 16.9624C14.9879 17.298 14.8146 17.7343 14.8146 18.1973C14.8146 18.6788 15.0021 19.1315 15.3426 19.4721C15.6832 19.8126 16.1359 20.0001 16.6174 20.0001C17.099 20.0001 17.5517 19.8126 17.8923 19.4721C18.18 19.1843 18.3603 18.8078 18.4077 18.4084C18.8071 18.3609 19.1837 18.1806 19.4714 17.8929C19.812 17.5523 19.9995 17.0996 19.9995 16.618C19.9995 16.1365 19.812 15.6838 19.4715 15.3432ZM0.786325 7.24828C1.16945 5.91231 2.05441 4.50258 3.2782 3.27883C4.50195 2.05504 5.91168 1.17004 7.24765 0.786954C7.71414 0.653204 8.14945 0.586915 8.54433 0.586915C9.22961 0.586915 9.79304 0.786485 10.1855 1.17895C10.8042 1.79758 10.9434 2.84098 10.5776 4.11684C10.1945 5.45281 9.30953 6.86254 8.08574 8.08629C6.86199 9.31008 5.45226 10.1951 4.11629 10.5781C2.84031 10.9441 1.79707 10.8048 1.1784 10.1861C0.559684 9.5675 0.420466 8.5241 0.786325 7.24828ZM13.3409 15.0261C13.1482 14.999 12.9557 14.9778 12.7631 14.9616C12.2132 14.9152 11.6628 14.9088 11.1063 14.9168C9.99406 14.9326 8.99558 14.8493 7.9298 14.54C6.36082 14.0845 4.983 13.3327 3.66882 12.3763C3.1714 12.0143 2.73621 11.657 2.3748 11.3395C2.51804 11.3563 2.66593 11.365 2.81851 11.365C3.26914 11.365 3.75898 11.2913 4.27808 11.1424C5.70812 10.7323 7.20781 9.79438 8.50082 8.50141C9.79379 7.2084 10.7317 5.70871 11.1418 4.27867C11.3411 3.58395 11.4055 2.94192 11.339 2.37567C11.6566 2.73703 12.0137 3.17203 12.3757 3.66945C13.3886 5.06106 14.6457 7.23586 14.8834 9.69399C15.0006 10.9069 14.8545 12.1282 15.0255 13.3417C15.0739 13.6852 15.1828 13.9896 15.2932 14.2637L14.263 15.2939C13.9889 15.1834 13.6846 15.0746 13.3409 15.0261Z" fill="#3E4958"/>
<path d="M4.45159 9.9015C5.54636 9.53365 6.71421 8.76611 7.74006 7.74025C8.76592 6.71439 9.53342 5.54659 9.90131 4.45178C10.2924 3.288 10.1899 2.32921 9.61275 1.75202C8.45877 0.598237 5.82858 1.42074 3.62453 3.62464C3.28523 3.96393 2.97054 4.32292 2.68902 4.69167C2.5907 4.82053 2.61543 5.00471 2.74426 5.10307C2.8732 5.20139 3.0573 5.17666 3.15566 5.04784C3.42132 4.69975 3.71874 4.36061 4.03964 4.03975C5.94519 2.13417 8.30737 1.27663 9.19768 2.1671C9.60299 2.57241 9.6567 3.33698 9.34494 4.26479C9.00541 5.2753 8.28803 6.36213 7.32503 7.3251C6.36206 8.2881 5.27523 9.00548 4.26472 9.34501C3.33699 9.65673 2.57234 9.60318 2.16699 9.19775C1.61586 8.64662 1.72074 7.47724 2.4407 6.14596C2.51781 6.00338 2.46472 5.8253 2.32215 5.74823C2.17961 5.67104 2.00148 5.72416 1.92441 5.86678C1.06317 7.45924 0.998713 8.85966 1.75195 9.61286C2.09871 9.95962 2.58312 10.135 3.16715 10.135C3.555 10.135 3.98706 10.0576 4.45159 9.9015Z" fill="#3E4958"/>
<path d="M6.512 5.72537C6.95798 5.72537 7.50692 5.44186 7.97719 4.92889C8.67094 4.17213 8.85239 3.28827 8.39934 2.87292C8.16016 2.65366 7.8029 2.61495 7.39337 2.76386C7.04821 2.8894 6.69106 3.14073 6.3877 3.47163C5.69395 4.22835 5.51247 5.11221 5.96551 5.52764C6.11149 5.66139 6.30012 5.72537 6.512 5.72537ZM6.8204 3.86827C7.05766 3.60948 7.33962 3.408 7.59395 3.31546C7.84989 3.22233 8.09059 3.24237 8.05696 3.56788C8.01966 3.92854 7.78223 4.27284 7.54454 4.53217C7.05141 5.06998 6.50645 5.22701 6.36223 5.0949C6.21809 4.96276 6.32731 4.40612 6.8204 3.86827Z" fill="#3E4958"/>
</g>
<defs>
<clipPath id="clip0">
<rect width="20" height="20" fill="white"/>
</clipPath>
</defs>
</svg>
