<svg width="20" height="20" viewBox="0 0 20 20" fill="none" xmlns="http://www.w3.org/2000/svg">
<g clip-path="url(#clip0)">
<path d="M15.0561 17.6838V9.12387H15.0159C15.0159 7.73414 14.2102 6.10272 14.1699 6.0423L12.6191 2.7996C13.1629 2.59819 13.5657 2.07452 13.5657 1.45015C13.5657 0.644512 12.9212 0 12.1156 0H7.8658C7.06016 0 6.41565 0.644512 6.41565 1.45015C6.41565 2.07452 6.79833 2.59819 7.36228 2.7996L5.81142 6.0423C5.751 6.12286 4.94536 7.75428 4.94536 9.12387V9.78852V14.0987V17.6636C4.94536 17.7039 4.8648 18.8318 5.50931 19.4965C5.83156 19.8389 6.25452 20 6.77819 20H13.2233C13.747 20 14.1699 19.8187 14.4922 19.4965C15.1166 18.8117 15.0561 17.7039 15.0561 17.6838ZM7.12059 1.45015C7.12059 1.04733 7.46298 0.704935 7.8658 0.704935H12.1156C12.5184 0.704935 12.8608 1.04733 12.8608 1.45015C12.8608 1.85297 12.5184 2.19537 12.1156 2.19537H7.8658C7.44284 2.19537 7.12059 1.85297 7.12059 1.45015ZM5.6503 9.12387C5.6503 7.91541 6.41565 6.38469 6.41565 6.36455L8.06721 2.9003H11.8739L13.5456 6.36455C13.5456 6.38469 14.3109 7.91541 14.3109 9.12387V9.42598H5.6503V9.12387ZM5.6503 10.1511H14.3109V13.7563H5.6503V10.1511ZM13.9484 19.0332C13.7671 19.2346 13.5254 19.3152 13.2032 19.3152H6.75805C6.43579 19.3152 6.1941 19.2145 6.01283 19.0332C5.58987 18.57 5.6503 17.7241 5.6503 17.7039V14.4814H14.3109V17.7442C14.3109 17.7241 14.3713 18.57 13.9484 19.0332Z" fill="#3E4958"/>
<path d="M8.61113 10.8157H7.92633L7.68464 11.581C7.60408 11.8429 7.52352 12.145 7.46309 12.4068H7.44295C7.38253 12.1248 7.32211 11.8429 7.24154 11.581L7.01999 10.8157H6.31506L6.17407 13.1319H6.65745L6.69774 12.2457C6.71788 11.9637 6.71788 11.6012 6.73802 11.2789C6.79844 11.581 6.879 11.9033 6.93943 12.1853L7.18112 13.0916H7.58394L7.86591 12.1853C7.94647 11.9234 8.04718 11.581 8.12774 11.2789H8.16802C8.16802 11.6213 8.18817 11.9436 8.18817 12.2255L8.22845 13.1117H8.73197L8.61113 10.8157Z" fill="#3E4958"/>
<path d="M9.65843 10.8157H9.13477V13.1319H9.65843V10.8157Z" fill="#3E4958"/>
<path d="M10.6452 12.6888V10.8157H10.1216V13.1319H11.5717V12.6888H10.6452Z" fill="#3E4958"/>
<path d="M12.9818 11.8026L13.7472 10.8157H13.1026L12.579 11.581C12.5185 11.6616 12.4783 11.7422 12.4178 11.8429H12.3977V10.8157H11.874V13.1319H12.3977V12.3665L12.5991 12.1248L13.1631 13.1319H13.7673L12.9818 11.8026Z" fill="#3E4958"/>
</g>
<defs>
<clipPath id="clip0">
<rect width="20" height="20" fill="white"/>
</clipPath>
</defs>
</svg>
