<svg width="22" height="22" viewBox="0 0 22 22" fill="none" xmlns="http://www.w3.org/2000/svg">
<g clip-path="url(#clip0)">
<path d="M2.20002 13.1999C3.41505 13.1999 4.40003 12.215 4.40003 10.9999C4.40003 9.7849 3.41505 8.79993 2.20002 8.79993C0.984981 8.79993 0 9.7849 0 10.9999C0 12.215 0.984981 13.1999 2.20002 13.1999Z" fill="#97ADB6"/>
<path d="M10.9999 13.1999C12.215 13.1999 13.1999 12.215 13.1999 10.9999C13.1999 9.7849 12.215 8.79993 10.9999 8.79993C9.7849 8.79993 8.79993 9.7849 8.79993 10.9999C8.79993 12.215 9.7849 13.1999 10.9999 13.1999Z" fill="#97ADB6"/>
<path d="M19.8 13.1999C21.015 13.1999 22 12.215 22 10.9999C22 9.7849 21.015 8.79993 19.8 8.79993C18.585 8.79993 17.6 9.7849 17.6 10.9999C17.6 12.215 18.585 13.1999 19.8 13.1999Z" fill="#97ADB6"/>
</g>
<defs>
<clipPath id="clip0">
<rect width="22" height="22" fill="white"/>
</clipPath>
</defs>
</svg>
