<svg width="20" height="20" viewBox="0 0 20 20" fill="none" xmlns="http://www.w3.org/2000/svg">
<path d="M20 14.1737C20 13.586 19.7706 13.0329 19.3541 12.6164L16.2002 9.4625C16.1966 9.45859 16.1933 9.45449 16.1895 9.4507C16.1857 9.44691 16.1816 9.44367 16.1777 9.44008L15.1243 8.38664C14.9717 8.23414 14.7244 8.23414 14.5718 8.38664C14.4193 8.53918 14.4193 8.78652 14.5718 8.9391L15.3602 9.72754L14.0558 11.032C13.9883 11.0995 13.9479 11.1894 13.9421 11.2847C13.9007 11.972 13.6071 12.6225 13.1163 13.1153C12.6223 13.6072 11.9718 13.9009 11.2846 13.9422C11.1893 13.948 11.0993 13.9884 11.0318 14.0559L9.72738 15.3604L5.94207 11.575L7.24594 10.2712C7.31348 10.2036 7.35391 10.1137 7.35965 10.0184C7.40105 9.32977 7.69492 8.67949 8.18715 8.18727C8.67937 7.695 9.32969 7.40113 10.0183 7.35977C10.1136 7.35402 10.2036 7.31355 10.2711 7.24605L11.5749 5.94219L12.0694 6.43664C12.1457 6.51289 12.2456 6.55105 12.3456 6.55105C12.4455 6.55105 12.5455 6.51289 12.6218 6.43664C12.7743 6.2841 12.7743 6.03676 12.6218 5.88418L11.8514 5.11371C11.8513 5.11363 11.8513 5.11355 11.8512 5.11348C11.8511 5.1134 11.851 5.11336 11.8509 5.11328L10.9066 4.16895C9.45715 2.71949 8.08129 2.80367 7.07656 2.86516C6.48043 2.90168 6.13336 2.91242 5.93051 2.70957L5.43051 2.20961L5.46102 2.1791C5.53426 2.10582 5.57543 2.00641 5.57543 1.90281C5.57543 1.79918 5.53422 1.6998 5.4609 1.62656L4.24746 0.414219C3.98039 0.147109 3.62395 0 3.24383 0C2.86371 0 2.50723 0.147109 2.24012 0.414219L0.414219 2.24012C0.147109 2.50723 0 2.86367 0 3.24379C0 3.62391 0.147109 3.98035 0.414102 4.24734L1.62656 5.46094C1.6998 5.53426 1.79918 5.57547 1.90281 5.57551H1.90289C2.00648 5.57551 2.10586 5.53434 2.1791 5.46109L2.20961 5.43059L2.70961 5.93055C2.91242 6.13336 2.90168 6.48051 2.8652 7.07656C2.80371 8.08125 2.71949 9.45715 4.16898 10.9067L5.11332 11.851C5.11336 11.8511 5.11344 11.8511 5.11348 11.8512C5.11352 11.8513 5.11359 11.8513 5.11367 11.8514L9.44062 16.1783C9.44406 16.182 9.44715 16.1859 9.45074 16.1895C9.45434 16.1931 9.4582 16.1962 9.46191 16.1996L12.6164 19.3541C13.0329 19.7706 13.586 20 14.1737 20C15.2652 20 16.1733 19.2012 16.3459 18.1573C17.2717 18.0041 18.0041 17.2717 18.1573 16.3459C19.2012 16.1733 20 15.2652 20 14.1737ZM0.966641 3.69508C0.847109 3.57551 0.78125 3.41527 0.78125 3.24379C0.78125 3.0723 0.847109 2.91207 0.966641 2.79254L2.79254 0.966641C2.91207 0.847109 3.07234 0.78125 3.24383 0.78125C3.41531 0.78125 3.57555 0.847109 3.69523 0.966758L4.63234 1.90301L1.90305 4.6323L0.966641 3.69508ZM3.645 7.1243C3.68543 6.46371 3.72363 5.83969 3.26203 5.37812L2.76207 4.87816L4.87816 2.76207L5.37816 3.26203C5.83977 3.72363 6.46379 3.68539 7.12438 3.645C8.07559 3.5868 9.15367 3.52078 10.3543 4.72145L11.0226 5.38977L9.82012 6.59223C8.99719 6.67676 8.22613 7.04355 7.6348 7.6348C7.04352 8.22613 6.67676 8.99715 6.59227 9.82008L5.3898 11.0225L4.72152 10.3543C3.52078 9.15359 3.58676 8.07547 3.645 7.1243ZM18.1448 15.5514C18.0608 15.1293 17.8543 14.7407 17.5431 14.4284C17.3908 14.2756 17.1435 14.2752 16.9906 14.4275C16.8379 14.5798 16.8374 14.8271 16.9897 14.98C17.2582 15.2494 17.4061 15.6064 17.4061 15.9853C17.4061 16.7688 16.7687 17.4062 15.9853 17.4062C15.6064 17.4062 15.2493 17.2583 14.9799 16.9898C14.8271 16.8375 14.5798 16.8379 14.4275 16.9907C14.2752 17.1435 14.2756 17.3908 14.4284 17.5431C14.7407 17.8544 15.1293 18.0608 15.5514 18.1448C15.3959 18.7612 14.8373 19.2188 14.1737 19.2188C13.7947 19.2188 13.4378 19.0706 13.1688 18.8016L10.2799 15.9127L11.4829 14.7096C12.3041 14.6252 13.075 14.2589 13.6688 13.6676C14.259 13.075 14.6252 12.3041 14.7096 11.4829L15.9127 10.2799L18.8016 13.1688C19.0706 13.4378 19.2188 13.7946 19.2188 14.1737C19.2188 14.8373 18.7612 15.3959 18.1448 15.5514Z" fill="#3E4958"/>
<path d="M11.4735 8.3146C11.3209 8.1621 11.0737 8.1621 10.9211 8.3146L8.35879 10.8769C8.20625 11.0294 8.20625 11.2768 8.35879 11.4293C8.43508 11.5056 8.53504 11.5437 8.635 11.5437C8.73496 11.5437 8.83496 11.5056 8.91121 11.4293L11.4735 8.86706C11.6261 8.71452 11.6261 8.46718 11.4735 8.3146Z" fill="#3E4958"/>
<path d="M12.2499 9.64337L9.68765 12.2056C9.53511 12.3582 9.53511 12.6055 9.68765 12.7581C9.76394 12.8343 9.8639 12.8725 9.96386 12.8725C10.0639 12.8725 10.1638 12.8343 10.2401 12.7581L12.8023 10.1958C12.9549 10.0433 12.9549 9.79595 12.8023 9.64337C12.6498 9.49087 12.4025 9.49087 12.2499 9.64337Z" fill="#3E4958"/>
<path d="M13.2941 7.69667C13.3701 7.77265 13.4694 7.81054 13.5687 7.81054C13.6688 7.81054 13.7689 7.7721 13.8454 7.69558C13.998 7.54304 13.9969 7.29456 13.8443 7.14202C13.6918 6.98952 13.4445 6.98952 13.2919 7.14202C13.1394 7.29456 13.1394 7.54191 13.2919 7.69449L13.2941 7.69667Z" fill="#3E4958"/>
</svg>
