<svg width="20" height="20" viewBox="0 0 20 20" fill="none" xmlns="http://www.w3.org/2000/svg">
<path d="M18.125 3.4375H1.875C1.46075 3.438 1.06361 3.60278 0.770694 3.89569C0.477776 4.18861 0.312996 4.58575 0.3125 5V15C0.312996 15.4142 0.477776 15.8114 0.770694 16.1043C1.06361 16.3972 1.46075 16.562 1.875 16.5625H18.125C18.5392 16.562 18.9364 16.3972 19.2293 16.1043C19.5222 15.8114 19.687 15.4142 19.6875 15V5C19.687 4.58575 19.5222 4.18861 19.2293 3.89569C18.9364 3.60278 18.5392 3.438 18.125 3.4375ZM19.0625 15C19.0625 15.2486 18.9637 15.4871 18.7879 15.6629C18.6121 15.8387 18.3736 15.9375 18.125 15.9375H1.875C1.62636 15.9375 1.3879 15.8387 1.21209 15.6629C1.03627 15.4871 0.9375 15.2486 0.9375 15V5C0.9375 4.75136 1.03627 4.5129 1.21209 4.33709C1.3879 4.16127 1.62636 4.0625 1.875 4.0625H18.125C18.3736 4.0625 18.6121 4.16127 18.7879 4.33709C18.9637 4.5129 19.0625 4.75136 19.0625 5V15Z" fill="#3E4958"/>
<path d="M7.5 4.6875H2.5C2.25136 4.6875 2.0129 4.78627 1.83709 4.96209C1.66127 5.1379 1.5625 5.37636 1.5625 5.625V10C1.5625 10.2486 1.66127 10.4871 1.83709 10.6629C2.0129 10.8387 2.25136 10.9375 2.5 10.9375H7.5C7.74864 10.9375 7.9871 10.8387 8.16291 10.6629C8.33873 10.4871 8.4375 10.2486 8.4375 10V5.625C8.4375 5.37636 8.33873 5.1379 8.16291 4.96209C7.9871 4.78627 7.74864 4.6875 7.5 4.6875ZM7.8125 10C7.8125 10.0829 7.77958 10.1624 7.72097 10.221C7.66237 10.2796 7.58288 10.3125 7.5 10.3125H2.5C2.41712 10.3125 2.33763 10.2796 2.27903 10.221C2.22042 10.1624 2.1875 10.0829 2.1875 10V5.625C2.1875 5.54212 2.22042 5.46263 2.27903 5.40403C2.33763 5.34542 2.41712 5.3125 2.5 5.3125H7.5C7.58288 5.3125 7.66237 5.34542 7.72097 5.40403C7.77958 5.46263 7.8125 5.54212 7.8125 5.625V10Z" fill="#3E4958"/>
<path d="M7.5 11.5625H2.5C2.25136 11.5625 2.0129 11.6613 1.83709 11.8371C1.66127 12.0129 1.5625 12.2514 1.5625 12.5V14.375C1.5625 14.6236 1.66127 14.8621 1.83709 15.0379C2.0129 15.2137 2.25136 15.3125 2.5 15.3125H7.5C7.74864 15.3125 7.9871 15.2137 8.16291 15.0379C8.33873 14.8621 8.4375 14.6236 8.4375 14.375V12.5C8.4375 12.2514 8.33873 12.0129 8.16291 11.8371C7.9871 11.6613 7.74864 11.5625 7.5 11.5625ZM7.8125 14.375C7.8125 14.4579 7.77958 14.5374 7.72097 14.596C7.66237 14.6546 7.58288 14.6875 7.5 14.6875H2.5C2.41712 14.6875 2.33763 14.6546 2.27903 14.596C2.22042 14.5374 2.1875 14.4579 2.1875 14.375V12.5C2.1875 12.4171 2.22042 12.3376 2.27903 12.279C2.33763 12.2204 2.41712 12.1875 2.5 12.1875H7.5C7.58288 12.1875 7.66237 12.2204 7.72097 12.279C7.77958 12.3376 7.8125 12.4171 7.8125 12.5V14.375Z" fill="#3E4958"/>
<path d="M17.5 4.6875H10C9.75136 4.6875 9.5129 4.78627 9.33709 4.96209C9.16127 5.1379 9.0625 5.37636 9.0625 5.625V14.375C9.0625 14.6236 9.16127 14.8621 9.33709 15.0379C9.5129 15.2137 9.75136 15.3125 10 15.3125H17.5C17.7486 15.3125 17.9871 15.2137 18.1629 15.0379C18.3387 14.8621 18.4375 14.6236 18.4375 14.375V5.625C18.4375 5.37636 18.3387 5.1379 18.1629 4.96209C17.9871 4.78627 17.7486 4.6875 17.5 4.6875ZM17.8125 14.375C17.8125 14.4579 17.7796 14.5374 17.721 14.596C17.6624 14.6546 17.5829 14.6875 17.5 14.6875H10C9.91712 14.6875 9.83763 14.6546 9.77903 14.596C9.72042 14.5374 9.6875 14.4579 9.6875 14.375V5.625C9.6875 5.54212 9.72042 5.46263 9.77903 5.40403C9.83763 5.34542 9.91712 5.3125 10 5.3125H17.5C17.5829 5.3125 17.6624 5.34542 17.721 5.40403C17.7796 5.46263 17.8125 5.54212 17.8125 5.625V14.375Z" fill="#3E4958"/>
<path d="M15.0537 6.5625H14.8553C14.4746 6.56237 14.0975 6.63525 13.7443 6.77719C13.395 6.63612 13.022 6.56324 12.6453 6.5625H12.4468C11.798 6.5625 11.1758 6.82022 10.7169 7.27897C10.2581 7.73772 10.0003 8.35994 10.0003 9.00875V9.20781C9.9992 9.59926 10.0758 9.98703 10.2256 10.3487C10.3754 10.7103 10.5955 11.0387 10.8731 11.3147C10.8978 11.3394 10.9262 11.3603 10.9518 11.3844C10.8512 11.4535 10.769 11.5461 10.7121 11.6541C10.6552 11.7621 10.6254 11.8823 10.6253 12.0044C10.6257 12.3843 10.7768 12.7486 11.0455 13.0173C11.3141 13.286 11.6784 13.4371 12.0584 13.4375C12.2584 13.4373 12.4501 13.3577 12.5915 13.2163C12.7329 13.0749 12.8125 12.8831 12.8128 12.6831C12.8128 12.6488 12.8264 12.6159 12.8506 12.5916L13.2546 12.1875H14.2459L14.6499 12.5919C14.6741 12.6161 14.6877 12.6489 14.6878 12.6831C14.688 12.8831 14.7676 13.0749 14.909 13.2163C15.0504 13.3577 15.2421 13.4373 15.4421 13.4375C15.8221 13.4371 16.1864 13.286 16.455 13.0173C16.7237 12.7486 16.8748 12.3843 16.8753 12.0044C16.8751 11.8825 16.8453 11.7625 16.7886 11.6546C16.7319 11.5468 16.6499 11.4542 16.5496 11.385C16.5753 11.3612 16.6024 11.3397 16.6274 11.3147C16.905 11.0387 17.1251 10.7103 17.2749 10.3487C17.4247 9.98703 17.5013 9.59926 17.5003 9.20781V9.00875C17.5002 8.35994 17.2424 7.73772 16.7836 7.27897C16.3248 6.82022 15.7025 6.5625 15.0537 6.5625ZM10.6253 9.20781V9.00875C10.6253 8.76955 10.6724 8.5327 10.7639 8.31172C10.8555 8.09073 10.9896 7.88994 11.1588 7.72082C11.3279 7.5517 11.5288 7.41755 11.7498 7.32604C11.9708 7.23454 12.2076 7.18746 12.4468 7.1875H12.6453C12.7622 7.18851 12.8788 7.19822 12.9943 7.21656C12.6441 7.49437 12.3614 7.84799 12.1676 8.25081C11.9738 8.65363 11.8738 9.09516 11.8753 9.54219V10.8081L11.5834 11.0997C11.2843 10.8836 11.0413 10.5992 10.8747 10.2701C10.708 9.94094 10.6225 9.57672 10.6253 9.20781ZM12.409 12.1494C12.2677 12.2911 12.1882 12.483 12.1878 12.6831C12.1877 12.7174 12.174 12.7503 12.1498 12.7745C12.1255 12.7988 12.0927 12.8124 12.0584 12.8125C11.8441 12.8123 11.6387 12.727 11.4872 12.5755C11.3357 12.424 11.2505 12.2186 11.2503 12.0044C11.2503 11.9701 11.264 11.9372 11.2882 11.913C11.3125 11.8887 11.3453 11.8751 11.3796 11.875C11.5796 11.8743 11.7712 11.795 11.9131 11.6541L12.1878 11.3794L12.6834 11.875L12.409 12.1494ZM16.1209 11.875C16.1552 11.8751 16.188 11.8887 16.2123 11.913C16.2365 11.9372 16.2502 11.9701 16.2503 12.0044C16.25 12.2186 16.1648 12.424 16.0133 12.5755C15.8618 12.727 15.6564 12.8123 15.4421 12.8125C15.4078 12.8124 15.375 12.7988 15.3507 12.7745C15.3265 12.7503 15.3128 12.7174 15.3128 12.6831C15.3123 12.4831 15.2329 12.2914 15.0918 12.1497L15.0768 12.1347C15.3676 12.0803 15.6486 11.9825 15.9103 11.8444C15.9787 11.8644 16.0496 11.8748 16.1209 11.875ZM16.8753 9.20781C16.8753 9.51706 16.8143 9.82328 16.696 10.109C16.5776 10.3947 16.4042 10.6543 16.1855 10.8729C15.9668 11.0916 15.7072 11.265 15.4215 11.3834C15.1357 11.5017 14.8295 11.5625 14.5203 11.5625H13.2546L12.5003 10.8081V9.54219C12.5003 9.23294 12.5612 8.92672 12.6795 8.64102C12.7979 8.35531 12.9714 8.09572 13.19 7.87706C13.4087 7.6584 13.6683 7.48497 13.9541 7.36665C14.2398 7.24833 14.546 7.18746 14.8553 7.1875H15.0537C15.2929 7.18746 15.5297 7.23454 15.7507 7.32604C15.9717 7.41755 16.1726 7.5517 16.3417 7.72082C16.5109 7.88994 16.645 8.09073 16.7366 8.31172C16.8281 8.5327 16.8753 8.76955 16.8753 9.00875V9.20781Z" fill="#3E4958"/>
<path d="M6.86109 6.72312C6.87047 6.6701 6.87518 6.61635 6.87515 6.5625C6.87515 6.31386 6.77638 6.0754 6.60056 5.89959C6.42475 5.72377 6.18629 5.625 5.93765 5.625C5.78747 5.6252 5.63958 5.66187 5.50671 5.73187C5.34685 5.66246 5.17443 5.62665 5.00015 5.62665C4.82587 5.62665 4.65345 5.66246 4.49359 5.73187C4.36071 5.66187 4.21283 5.6252 4.06265 5.625C3.81401 5.625 3.57555 5.72377 3.39973 5.89959C3.22392 6.0754 3.12515 6.31386 3.12515 6.5625C3.12512 6.61635 3.12982 6.6701 3.13921 6.72312C2.94545 6.83147 2.78409 6.98954 2.67177 7.18103C2.55946 7.37252 2.50024 7.5905 2.50024 7.8125C2.50024 8.0345 2.55946 8.25248 2.67177 8.44397C2.78409 8.63546 2.94545 8.79353 3.13921 8.90188C3.12982 8.9549 3.12512 9.00865 3.12515 9.0625C3.12515 9.31114 3.22392 9.5496 3.39973 9.72541C3.57555 9.90123 3.81401 10 4.06265 10C4.21283 9.9998 4.36071 9.96313 4.49359 9.89313C4.65345 9.96254 4.82587 9.99835 5.00015 9.99835C5.17443 9.99835 5.34685 9.96254 5.50671 9.89313C5.63958 9.96313 5.78747 9.9998 5.93765 10C6.18629 10 6.42475 9.90123 6.60056 9.72541C6.77638 9.5496 6.87515 9.31114 6.87515 9.0625C6.87518 9.00865 6.87047 8.9549 6.86109 8.90188C7.05485 8.79353 7.21621 8.63546 7.32853 8.44397C7.44084 8.25248 7.50005 8.0345 7.50005 7.8125C7.50005 7.5905 7.44084 7.37252 7.32853 7.18103C7.21621 6.98954 7.05485 6.83147 6.86109 6.72312ZM6.39234 8.41906C6.3434 8.43033 6.2979 8.45323 6.25969 8.48581C6.22148 8.5184 6.19169 8.55971 6.17283 8.60625C6.15398 8.65279 6.14661 8.70319 6.15137 8.75319C6.15612 8.80318 6.17286 8.85128 6.20015 8.89344C6.23298 8.9437 6.25036 9.00247 6.25015 9.0625C6.25015 9.14538 6.21723 9.22487 6.15862 9.28347C6.10002 9.34208 6.02053 9.375 5.93765 9.375C5.86126 9.37444 5.78778 9.3456 5.7314 9.29406C5.67434 9.24304 5.60045 9.21489 5.5239 9.215C5.46154 9.21495 5.40059 9.23356 5.3489 9.26844C5.24531 9.33647 5.12408 9.37272 5.00015 9.37272C4.87622 9.37272 4.75499 9.33647 4.6514 9.26844C4.59385 9.22962 4.52502 9.21107 4.45576 9.21571C4.3865 9.22035 4.32075 9.24792 4.2689 9.29406C4.21251 9.3456 4.13904 9.37444 4.06265 9.375C3.97977 9.375 3.90028 9.34208 3.84168 9.28347C3.78307 9.22487 3.75015 9.14538 3.75015 9.0625C3.75021 9.00238 3.76793 8.94359 3.80108 8.89344C3.82838 8.85128 3.84511 8.80318 3.84987 8.75319C3.85462 8.70319 3.84726 8.65279 3.8284 8.60625C3.80955 8.55971 3.77975 8.5184 3.74154 8.48581C3.70333 8.45323 3.65783 8.43033 3.6089 8.41906C3.4715 8.38768 3.34884 8.31058 3.26098 8.20038C3.17312 8.09019 3.12527 7.95343 3.12527 7.8125C3.12527 7.67157 3.17312 7.53481 3.26098 7.42462C3.34884 7.31442 3.4715 7.23732 3.6089 7.20594C3.65783 7.19467 3.70333 7.17177 3.74154 7.13919C3.77975 7.1066 3.80955 7.06529 3.8284 7.01875C3.84726 6.97221 3.85462 6.92181 3.84987 6.87181C3.84511 6.82182 3.82838 6.77371 3.80108 6.73156C3.76793 6.68141 3.75021 6.62262 3.75015 6.5625C3.75015 6.47962 3.78307 6.40013 3.84168 6.34153C3.90028 6.28292 3.97977 6.25 4.06265 6.25C4.13904 6.25056 4.21251 6.2794 4.2689 6.33094C4.32075 6.37708 4.3865 6.40465 4.45576 6.40929C4.52502 6.41393 4.59385 6.39538 4.6514 6.35656C4.75499 6.28853 4.87622 6.25228 5.00015 6.25228C5.12408 6.25228 5.24531 6.28853 5.3489 6.35656C5.40645 6.39538 5.47528 6.41393 5.54454 6.40929C5.6138 6.40465 5.67954 6.37708 5.7314 6.33094C5.78778 6.2794 5.86126 6.25056 5.93765 6.25C6.02053 6.25 6.10002 6.28292 6.15862 6.34153C6.21723 6.40013 6.25015 6.47962 6.25015 6.5625C6.25008 6.62262 6.23237 6.68141 6.19921 6.73156C6.17192 6.77371 6.15519 6.82182 6.15043 6.87181C6.14568 6.92181 6.15304 6.97221 6.17189 7.01875C6.19075 7.06529 6.22054 7.1066 6.25875 7.13919C6.29696 7.17177 6.34246 7.19467 6.3914 7.20594C6.52879 7.23732 6.65146 7.31442 6.73932 7.42462C6.82718 7.53481 6.87503 7.67157 6.87503 7.8125C6.87503 7.95343 6.82718 8.09019 6.73932 8.20038C6.65146 8.31058 6.52879 8.38768 6.3914 8.41906H6.39234Z" fill="#3E4958"/>
<path d="M3.4375 12.8125H2.8125V13.4375H3.4375V12.8125Z" fill="#3E4958"/>
<path d="M4.375 13.4375H3.75V14.0625H4.375V13.4375Z" fill="#3E4958"/>
<path d="M5.3125 12.8125H4.6875V13.4375H5.3125V12.8125Z" fill="#3E4958"/>
<path d="M6.25 13.4375H5.625V14.0625H6.25V13.4375Z" fill="#3E4958"/>
<path d="M7.1875 12.8125H6.5625V13.4375H7.1875V12.8125Z" fill="#3E4958"/>
</svg>
