<svg width="16" height="16" viewBox="0 0 16 16" fill="none" xmlns="http://www.w3.org/2000/svg">
<path d="M10.2815 1.97709C10.1207 0.850025 9.13962 0 7.9996 0C7.26645 0 6.57015 0.353787 6.13724 0.946715C6.04881 1.06764 6.07527 1.23726 6.19619 1.32569C6.31671 1.4138 6.48673 1.38766 6.575 1.26658C6.90638 0.813161 7.43885 0.542398 7.99952 0.542398C8.8714 0.542398 9.62148 1.19213 9.74446 2.0536C9.76385 2.1889 9.87992 2.28654 10.0127 2.28654C10.0253 2.28654 10.0383 2.28559 10.0513 2.28384C10.1995 2.26263 10.3026 2.12526 10.2815 1.97709Z" fill="#FFC600"/>
<path d="M14.1986 5.01287L13.3851 3.65692C13.3361 3.57516 13.2478 3.52527 13.1525 3.52527H12.3729C12.2232 3.52527 12.1017 3.64675 12.1017 3.79643C12.1017 3.94611 12.2232 4.06759 12.3729 4.06759H12.999L13.4871 4.88115H2.51277L3.00091 4.06759H3.28812C3.4378 4.06759 3.55928 3.94611 3.55928 3.79643C3.55928 3.64675 3.4378 3.52527 3.28812 3.52527H2.84741C2.75207 3.52527 2.66381 3.57516 2.61487 3.65692L1.80131 5.01287C1.75102 5.09677 1.74982 5.20109 1.79789 5.2861C1.84596 5.37111 1.93605 5.4237 2.03386 5.4237H13.9661C14.0639 5.4237 14.1539 5.37111 14.202 5.2861C14.2502 5.20109 14.2489 5.09661 14.1986 5.01287Z" fill="#FFC600"/>
<path d="M12.847 2.5124C12.809 2.45115 12.7484 2.40769 12.6783 2.39132L8.98144 1.52668C8.91145 1.51023 8.83772 1.52247 8.77654 1.56029C8.71553 1.59826 8.67199 1.65888 8.65562 1.72896L8.37684 2.92069C8.34267 3.06648 8.43325 3.21235 8.57911 3.24635C8.7249 3.28052 8.87093 3.18994 8.90493 3.04408L9.12199 2.11651L12.2907 2.85769L11.7927 4.98652C11.7586 5.13231 11.8492 5.27818 11.995 5.31219C12.0159 5.31703 12.0367 5.31934 12.0572 5.31934C12.1803 5.31934 12.2918 5.23496 12.3208 5.10999L12.8805 2.71714C12.897 2.64715 12.8849 2.57342 12.847 2.5124Z" fill="#FFC600"/>
<path d="M8.14313 3.15354L7.89604 1.06364C7.88762 0.992211 7.85116 0.926983 7.79459 0.882492C7.73802 0.838 7.6666 0.817661 7.59485 0.826083L3.05911 1.36221C2.91047 1.37984 2.80416 1.51459 2.82172 1.6634L3.23366 5.14906C3.25003 5.28707 3.36706 5.38852 3.50268 5.38852C3.51324 5.38852 3.52413 5.38781 3.53493 5.38662C3.6835 5.36898 3.78981 5.23423 3.77233 5.08542L3.39216 1.86885L7.38932 1.39645L7.60447 3.21702C7.6221 3.36575 7.75621 3.47142 7.90566 3.45457C8.05431 3.4371 8.16061 3.30227 8.14313 3.15354Z" fill="#FFC600"/>
<path d="M10.2881 5.04947L9.74979 2.81108C9.73295 2.74124 9.68901 2.68078 9.62776 2.64321C9.5665 2.60594 9.49301 2.59426 9.4227 2.61095L5.05404 3.66158C4.90841 3.69654 4.81879 3.84304 4.85375 3.98867L5.12276 5.10747C5.15772 5.25326 5.30423 5.34296 5.44978 5.30776C5.59541 5.27281 5.68502 5.1263 5.65007 4.98067L5.44437 4.12548L9.28573 3.20181L9.76059 5.17643C9.79039 5.30077 9.90162 5.38419 10.024 5.38419C10.0451 5.38419 10.0664 5.38173 10.0878 5.37657C10.2334 5.34153 10.323 5.1951 10.2881 5.04947Z" fill="#FFC600"/>
<path d="M14.237 5.13873C14.2296 4.99461 14.1105 4.88147 13.9661 4.88147H2.03389C1.88945 4.88147 1.77044 4.99453 1.76297 5.13873L1.22057 15.715C1.21676 15.7892 1.24361 15.8618 1.29478 15.9157C1.34602 15.9695 1.41705 16 1.49141 16H14.5083C14.5826 16 14.6537 15.9695 14.7052 15.9157C14.7563 15.8618 14.7832 15.7893 14.7794 15.715L14.237 5.13873ZM1.77679 15.4576L2.29139 5.42379H13.7083L14.2229 15.4576H1.77679Z" fill="#FFC600"/>
<path d="M10.0338 5.96606C9.58512 5.96606 9.22021 6.33097 9.22021 6.77962C9.22021 7.22827 9.58512 7.59318 10.0338 7.59318C10.4824 7.59318 10.8473 7.22827 10.8473 6.77962C10.8473 6.33097 10.4824 5.96606 10.0338 5.96606ZM10.0338 7.05086C9.88417 7.05086 9.76261 6.92922 9.76261 6.7797C9.76261 6.63018 9.88425 6.50854 10.0338 6.50854C10.1833 6.50854 10.3049 6.63018 10.3049 6.7797C10.3049 6.92922 10.1833 7.05086 10.0338 7.05086Z" fill="#FFC600"/>
<path d="M5.9659 5.96606C5.51725 5.96606 5.15234 6.33097 5.15234 6.77962C5.15234 7.22827 5.51725 7.59318 5.9659 7.59318C6.41455 7.59318 6.77946 7.22827 6.77946 6.77962C6.77946 6.33097 6.41455 5.96606 5.9659 5.96606ZM5.9659 7.05086C5.81638 7.05086 5.69474 6.92922 5.69474 6.7797C5.69474 6.63018 5.81638 6.50854 5.9659 6.50854C6.11543 6.50854 6.23706 6.63018 6.23706 6.7797C6.23706 6.92922 6.11543 7.05086 5.9659 7.05086Z" fill="#FFC600"/>
<path d="M10.0338 6.77966H10.0129C9.8632 6.77966 9.74172 6.90114 9.74172 7.05082C9.74172 7.08785 9.74903 7.1232 9.76261 7.15538V8.54232C9.76261 9.51421 8.97186 10.305 7.99988 10.305C7.0279 10.305 6.23714 9.51429 6.23714 8.54232V7.0509C6.23714 6.90122 6.11567 6.77974 5.96598 6.77974C5.8163 6.77974 5.69482 6.90122 5.69482 7.0509V8.5424C5.69482 9.81342 6.72885 10.8474 7.99988 10.8474C9.2709 10.8474 10.3049 9.81342 10.3049 8.5424V7.0509C10.3049 6.90122 10.1835 6.77966 10.0338 6.77966Z" fill="#FFC600"/>
</svg>
