<svg width="20" height="20" viewBox="0 0 20 20" fill="none" xmlns="http://www.w3.org/2000/svg">
<path d="M10 19.4594C9.92833 19.4594 9.85958 19.431 9.8089 19.3803C9.75821 19.3296 9.72974 19.2608 9.72974 19.1892V11.8378C9.72974 11.7661 9.75821 11.6974 9.8089 11.6467C9.85958 11.596 9.92833 11.5675 10 11.5675C10.0717 11.5675 10.1404 11.596 10.1911 11.6467C10.2418 11.6974 10.2703 11.7661 10.2703 11.8378V19.1892C10.2703 19.2608 10.2418 19.3296 10.1911 19.3803C10.1404 19.431 10.0717 19.4594 10 19.4594Z" fill="#3E4958"/>
<path d="M10 8.43237C9.92833 8.43237 9.85958 8.4039 9.8089 8.35321C9.75821 8.30253 9.72974 8.23378 9.72974 8.1621V0.810752C9.72974 0.739072 9.75821 0.670327 9.8089 0.619642C9.85958 0.568956 9.92833 0.540482 10 0.540482C10.0717 0.540482 10.1404 0.568956 10.1911 0.619642C10.2418 0.670327 10.2703 0.739072 10.2703 0.810752V8.1621C10.2703 8.23378 10.2418 8.30253 10.1911 8.35321C10.1404 8.4039 10.0717 8.43237 10 8.43237Z" fill="#3E4958"/>
<path d="M9.9998 3.70022C9.92813 3.7002 9.85939 3.67172 9.80872 3.62103L8.24115 2.05346C8.19192 2.00249 8.16468 1.93421 8.16529 1.86335C8.16591 1.79249 8.19433 1.7247 8.24444 1.67459C8.29455 1.62448 8.36234 1.59605 8.4332 1.59544C8.50407 1.59482 8.57234 1.62206 8.62331 1.6713L9.9998 3.04778L11.3757 1.67184C11.4267 1.62261 11.495 1.59536 11.5659 1.59598C11.6367 1.59659 11.7045 1.62502 11.7546 1.67513C11.8047 1.72524 11.8332 1.79303 11.8338 1.86389C11.8344 1.93475 11.8071 2.00303 11.7579 2.054L10.1903 3.62157C10.1397 3.67193 10.0712 3.7002 9.9998 3.70022Z" fill="#3E4958"/>
<path d="M10.0001 6.06748C9.92843 6.06747 9.85969 6.03898 9.80902 5.98829L8.24145 4.42073C8.21563 4.39579 8.19504 4.36597 8.18088 4.333C8.16671 4.30002 8.15926 4.26456 8.15895 4.22867C8.15863 4.19279 8.16547 4.1572 8.17906 4.12398C8.19265 4.09077 8.21272 4.06059 8.2381 4.03521C8.26347 4.00984 8.29365 3.98977 8.32686 3.97618C8.36008 3.96259 8.39567 3.95575 8.43156 3.95606C8.46744 3.95638 8.50291 3.96383 8.53588 3.978C8.56886 3.99216 8.59868 4.01275 8.62361 4.03856L10.0001 5.41505L11.3761 4.03911C11.401 4.01329 11.4308 3.9927 11.4638 3.97854C11.4968 3.96437 11.5322 3.95692 11.5681 3.95661C11.604 3.95629 11.6396 3.96313 11.6728 3.97672C11.706 3.99031 11.7362 4.01038 11.7616 4.03576C11.7869 4.06113 11.807 4.09131 11.8206 4.12452C11.8342 4.15774 11.841 4.19333 11.8407 4.22921C11.8404 4.2651 11.833 4.30056 11.8188 4.33354C11.8046 4.36651 11.784 4.39634 11.7582 4.42127L10.1906 5.98883C10.14 6.03919 10.0715 6.06747 10.0001 6.06748Z" fill="#3E4958"/>
<path d="M11.5676 18.4073C11.4959 18.4072 11.4272 18.3788 11.3765 18.3281L9.99999 16.9521L8.62405 18.3281C8.57307 18.3773 8.5048 18.4045 8.43394 18.4039C8.36307 18.4033 8.29529 18.3749 8.24518 18.3248C8.19507 18.2747 8.16664 18.2069 8.16603 18.136C8.16541 18.0652 8.19265 17.9969 8.24188 17.9459L9.80945 16.3784C9.86013 16.3277 9.92887 16.2992 10.0005 16.2992C10.0722 16.2992 10.1409 16.3277 10.1916 16.3784L11.7592 17.9459C11.797 17.9837 11.8227 18.0319 11.8331 18.0843C11.8435 18.1367 11.8382 18.191 11.8177 18.2404C11.7973 18.2898 11.7627 18.332 11.7182 18.3617C11.6738 18.3914 11.6215 18.4072 11.5681 18.4073H11.5676Z" fill="#3E4958"/>
<path d="M11.5676 16.0402C11.4959 16.0402 11.4272 16.0117 11.3765 15.9611L9.99999 14.5848L8.62405 15.9608C8.57307 16.01 8.5048 16.0373 8.43394 16.0366C8.36307 16.036 8.29529 16.0076 8.24518 15.9575C8.19507 15.9074 8.16664 15.8396 8.16603 15.7687C8.16541 15.6979 8.19265 15.6296 8.24188 15.5786L9.80945 14.011C9.86013 13.9604 9.92887 13.9319 10.0005 13.9319C10.0722 13.9319 10.1409 13.9604 10.1916 14.011L11.7592 15.5786C11.797 15.6164 11.8227 15.6646 11.8331 15.717C11.8435 15.7694 11.8382 15.8237 11.8177 15.8731C11.7973 15.9225 11.7627 15.9647 11.7182 15.9944C11.6738 16.0241 11.6215 16.04 11.5681 16.04L11.5676 16.0402Z" fill="#3E4958"/>
<path d="M8.16215 10.2702H0.810798C0.739117 10.2702 0.670373 10.2417 0.619688 10.191C0.569002 10.1403 0.540527 10.0716 0.540527 9.99992C0.540527 9.92824 0.569002 9.85949 0.619688 9.80881C0.670373 9.75812 0.739117 9.72964 0.810798 9.72964H8.16215C8.23383 9.72964 8.30257 9.75812 8.35326 9.80881C8.40394 9.85949 8.43242 9.92824 8.43242 9.99992C8.43242 10.0716 8.40394 10.1403 8.35326 10.191C8.30257 10.2417 8.23383 10.2702 8.16215 10.2702Z" fill="#3E4958"/>
<path d="M19.189 10.2702H11.8377C11.766 10.2702 11.6972 10.2417 11.6465 10.191C11.5959 10.1403 11.5674 10.0716 11.5674 9.99992C11.5674 9.92824 11.5959 9.85949 11.6465 9.80881C11.6972 9.75812 11.766 9.72964 11.8377 9.72964H19.189C19.2607 9.72964 19.3294 9.75812 19.3801 9.80881C19.4308 9.85949 19.4593 9.92824 19.4593 9.99992C19.4593 10.0716 19.4308 10.1403 19.3801 10.191C19.3294 10.2417 19.2607 10.2702 19.189 10.2702Z" fill="#3E4958"/>
<path d="M18.1371 11.8378C18.0654 11.8378 17.9967 11.8093 17.946 11.7586L16.3784 10.191C16.3278 10.1403 16.2993 10.0716 16.2993 9.99993C16.2993 9.92826 16.3278 9.85953 16.3784 9.80884L17.946 8.24127C17.997 8.19204 18.0653 8.1648 18.1361 8.16542C18.207 8.16603 18.2748 8.19446 18.3249 8.24457C18.375 8.29468 18.4034 8.36246 18.404 8.43333C18.4047 8.50419 18.3774 8.57246 18.3282 8.62344L16.9522 9.99993L18.3282 11.3759C18.366 11.4137 18.3917 11.4618 18.4021 11.5142C18.4125 11.5667 18.4072 11.621 18.3867 11.6704C18.3663 11.7198 18.3317 11.762 18.2872 11.7917C18.2428 11.8214 18.1905 11.8372 18.1371 11.8372V11.8378Z" fill="#3E4958"/>
<path d="M15.7699 11.8378C15.6982 11.8378 15.6295 11.8093 15.5788 11.7586L14.0113 10.191C13.9606 10.1403 13.9321 10.0716 13.9321 9.99993C13.9321 9.92826 13.9606 9.85953 14.0113 9.80884L15.5788 8.24127C15.6298 8.19204 15.6981 8.1648 15.7689 8.16542C15.8398 8.16603 15.9076 8.19446 15.9577 8.24457C16.0078 8.29468 16.0362 8.36246 16.0368 8.43333C16.0375 8.50419 16.0102 8.57246 15.961 8.62344L14.5848 9.99993L15.9607 11.3759C15.9985 11.4137 16.0242 11.4618 16.0347 11.5142C16.0451 11.5667 16.0397 11.621 16.0193 11.6704C15.9988 11.7198 15.9642 11.762 15.9198 11.7917C15.8753 11.8214 15.8231 11.8372 15.7696 11.8372L15.7699 11.8378Z" fill="#3E4958"/>
<path d="M1.86299 11.8378C1.80954 11.8377 1.7573 11.8219 1.71286 11.7922C1.66843 11.7625 1.63379 11.7203 1.61334 11.6709C1.59289 11.6215 1.58754 11.5672 1.59796 11.5148C1.60839 11.4624 1.63412 11.4142 1.67191 11.3764L3.04785 9.99993L1.67191 8.62398C1.62267 8.57301 1.59543 8.50474 1.59605 8.43388C1.59666 8.36301 1.62509 8.29522 1.6752 8.24511C1.72531 8.195 1.79309 8.16658 1.86396 8.16596C1.93482 8.16535 2.00309 8.19259 2.05407 8.24182L3.62163 9.80939C3.6723 9.86007 3.70077 9.9288 3.70077 10.0005C3.70077 10.0721 3.6723 10.1409 3.62163 10.1915L2.05407 11.7591C2.00331 11.8096 1.93458 11.8379 1.86299 11.8378Z" fill="#3E4958"/>
<path d="M4.23011 11.8377C4.17666 11.8377 4.12442 11.8219 4.07998 11.7922C4.03555 11.7625 4.00092 11.7203 3.98047 11.6709C3.96001 11.6215 3.95466 11.5672 3.96509 11.5148C3.97551 11.4623 4.00124 11.4142 4.03903 11.3764L5.41524 9.9999L4.0393 8.62396C4.01348 8.59903 3.99289 8.5692 3.97873 8.53623C3.96456 8.50326 3.95711 8.46779 3.9568 8.4319C3.95649 8.39602 3.96332 8.36043 3.97691 8.32721C3.9905 8.294 4.01057 8.26382 4.03595 8.23845C4.06132 8.21307 4.0915 8.193 4.12471 8.17941C4.15793 8.16582 4.19352 8.15898 4.2294 8.1593C4.26529 8.15961 4.30076 8.16706 4.33373 8.18123C4.3667 8.19539 4.39653 8.21598 4.42146 8.2418L5.98902 9.80936C6.03969 9.86004 6.06815 9.92878 6.06815 10.0004C6.06815 10.0721 6.03969 10.1408 5.98902 10.1915L4.42146 11.7591C4.39629 11.7841 4.36644 11.804 4.33361 11.8174C4.30077 11.8309 4.2656 11.8378 4.23011 11.8377Z" fill="#3E4958"/>
<path d="M16.4983 16.7683C16.4266 16.7683 16.3579 16.7398 16.3072 16.6891L11.1083 11.4908C11.0576 11.44 11.0291 11.3712 11.0291 11.2994C11.0291 11.2276 11.0576 11.1588 11.1083 11.1081C11.1591 11.0573 11.2279 11.0288 11.2997 11.0288C11.3714 11.0288 11.4403 11.0573 11.491 11.1081L16.6894 16.307C16.7272 16.3448 16.7529 16.3929 16.7633 16.4453C16.7738 16.4977 16.7684 16.5521 16.748 16.6015C16.7275 16.6508 16.6929 16.693 16.6484 16.7227C16.604 16.7524 16.5518 16.7683 16.4983 16.7683Z" fill="#3E4958"/>
<path d="M8.70044 8.97049C8.62876 8.97048 8.56003 8.94199 8.50935 8.8913L3.31098 3.69292C3.26174 3.64195 3.2345 3.57368 3.23512 3.50282C3.23573 3.43195 3.26416 3.36416 3.31427 3.31405C3.36438 3.26394 3.43217 3.23552 3.50303 3.2349C3.57389 3.23429 3.64216 3.26153 3.69314 3.31076L8.89206 8.50914C8.92984 8.54694 8.95557 8.59509 8.966 8.64751C8.97642 8.69993 8.97107 8.75426 8.95062 8.80364C8.93017 8.85302 8.89553 8.89523 8.8511 8.92492C8.80666 8.95462 8.75442 8.97048 8.70098 8.97049H8.70044Z" fill="#3E4958"/>
<path d="M5.35441 5.62481H3.13819C3.06651 5.62481 2.99777 5.59633 2.94708 5.54564C2.89639 5.49496 2.86792 5.42622 2.86792 5.35453C2.86792 5.28285 2.89639 5.21411 2.94708 5.16342C2.99777 5.11274 3.06651 5.08426 3.13819 5.08426H5.08414V3.13831C5.08414 3.06663 5.11262 2.99789 5.1633 2.9472C5.21399 2.89652 5.28273 2.86804 5.35441 2.86804C5.42609 2.86804 5.49484 2.89652 5.54552 2.9472C5.59621 2.99789 5.62468 3.06663 5.62468 3.13831V5.35453C5.62468 5.42622 5.59621 5.49496 5.54552 5.54564C5.49484 5.59633 5.42609 5.62481 5.35441 5.62481Z" fill="#3E4958"/>
<path d="M7.02701 7.29722H4.8108C4.73912 7.29722 4.67037 7.26875 4.61969 7.21806C4.569 7.16738 4.54053 7.09863 4.54053 7.02695C4.54053 6.95527 4.569 6.88653 4.61969 6.83584C4.67037 6.78516 4.73912 6.75668 4.8108 6.75668H6.75674V4.81074C6.75674 4.73906 6.78522 4.67031 6.8359 4.61963C6.88659 4.56894 6.95533 4.54047 7.02701 4.54047C7.09869 4.54047 7.16744 4.56894 7.21812 4.61963C7.26881 4.67031 7.29728 4.73906 7.29728 4.81074V7.02695C7.29728 7.09863 7.26881 7.16738 7.21812 7.21806C7.16744 7.26875 7.09869 7.29722 7.02701 7.29722Z" fill="#3E4958"/>
<path d="M14.6455 17.1321C14.5738 17.1321 14.5051 17.1036 14.4544 17.0529C14.4037 17.0022 14.3752 16.9335 14.3752 16.8618V14.6456C14.3752 14.5739 14.4037 14.5052 14.4544 14.4545C14.5051 14.4038 14.5738 14.3754 14.6455 14.3754H16.8617C16.9334 14.3754 17.0021 14.4038 17.0528 14.4545C17.1035 14.5052 17.132 14.5739 17.132 14.6456C17.132 14.7173 17.1035 14.786 17.0528 14.8367C17.0021 14.8874 16.9334 14.9159 16.8617 14.9159H14.9158V16.8618C14.9158 16.9335 14.8873 17.0022 14.8366 17.0529C14.7859 17.1036 14.7172 17.1321 14.6455 17.1321Z" fill="#3E4958"/>
<path d="M12.9727 15.4594C12.901 15.4594 12.8322 15.4309 12.7816 15.3802C12.7309 15.3296 12.7024 15.2608 12.7024 15.1891V12.9729C12.7024 12.9013 12.7309 12.8325 12.7816 12.7818C12.8322 12.7311 12.901 12.7027 12.9727 12.7027H15.1889C15.2605 12.7027 15.3293 12.7311 15.38 12.7818C15.4307 12.8325 15.4591 12.9013 15.4591 12.9729C15.4591 13.0446 15.4307 13.1134 15.38 13.164C15.3293 13.2147 15.2605 13.2432 15.1889 13.2432H13.2429V15.1891C13.2429 15.2608 13.2145 15.3296 13.1638 15.3802C13.1131 15.4309 13.0443 15.4594 12.9727 15.4594Z" fill="#3E4958"/>
<path d="M3.5019 16.7683C3.44846 16.7683 3.39621 16.7524 3.35178 16.7227C3.30734 16.693 3.27271 16.6508 3.25226 16.6015C3.23181 16.5521 3.22646 16.4977 3.23688 16.4453C3.2473 16.3929 3.27303 16.3448 3.31082 16.307L8.5092 11.1081C8.55995 11.0573 8.62878 11.0288 8.70055 11.0288C8.77232 11.0288 8.84115 11.0573 8.8919 11.1081C8.94265 11.1588 8.97116 11.2276 8.97116 11.2994C8.97116 11.3712 8.94265 11.44 8.8919 11.4908L3.69298 16.6891C3.64231 16.7398 3.57358 16.7683 3.5019 16.7683Z" fill="#3E4958"/>
<path d="M11.3 8.97049C11.2466 8.97048 11.1943 8.95462 11.1499 8.92492C11.1054 8.89523 11.0708 8.85302 11.0504 8.80364C11.0299 8.75426 11.0246 8.69993 11.035 8.64751C11.0454 8.59509 11.0711 8.54694 11.1089 8.50914L16.3073 3.31076C16.3583 3.26153 16.4266 3.23429 16.4974 3.2349C16.5683 3.23552 16.6361 3.26394 16.6862 3.31405C16.7363 3.36416 16.7647 3.43195 16.7653 3.50282C16.7659 3.57368 16.7387 3.64195 16.6895 3.69292L11.4911 8.89184C11.4403 8.94233 11.3716 8.97062 11.3 8.97049Z" fill="#3E4958"/>
<path d="M16.862 5.62481H14.6458C14.5741 5.62481 14.5053 5.59633 14.4546 5.54564C14.404 5.49496 14.3755 5.42622 14.3755 5.35453V3.13831C14.3755 3.06663 14.404 2.99789 14.4546 2.9472C14.5053 2.89652 14.5741 2.86804 14.6458 2.86804C14.7174 2.86804 14.7862 2.89652 14.8369 2.9472C14.8876 2.99789 14.916 3.06663 14.916 3.13831V5.08426H16.862C16.9336 5.08426 17.0024 5.11274 17.0531 5.16342C17.1038 5.21411 17.1322 5.28285 17.1322 5.35453C17.1322 5.42622 17.1038 5.49496 17.0531 5.54564C17.0024 5.59633 16.9336 5.62481 16.862 5.62481Z" fill="#3E4958"/>
<path d="M15.1889 7.29722H12.9727C12.901 7.29722 12.8322 7.26875 12.7816 7.21806C12.7309 7.16738 12.7024 7.09863 12.7024 7.02695V4.81074C12.7024 4.73906 12.7309 4.67031 12.7816 4.61963C12.8322 4.56894 12.901 4.54047 12.9727 4.54047C13.0443 4.54047 13.1131 4.56894 13.1638 4.61963C13.2145 4.67031 13.2429 4.73906 13.2429 4.81074V6.75668H15.1889C15.2605 6.75668 15.3293 6.78516 15.38 6.83584C15.4307 6.88653 15.4591 6.95527 15.4591 7.02695C15.4591 7.09863 15.4307 7.16738 15.38 7.21806C15.3293 7.26875 15.2605 7.29722 15.1889 7.29722Z" fill="#3E4958"/>
<path d="M5.35441 17.1321C5.28273 17.1321 5.21399 17.1036 5.1633 17.0529C5.11262 17.0022 5.08414 16.9335 5.08414 16.8618V14.9159H3.13819C3.06651 14.9159 2.99777 14.8874 2.94708 14.8367C2.89639 14.786 2.86792 14.7173 2.86792 14.6456C2.86792 14.5739 2.89639 14.5052 2.94708 14.4545C2.99777 14.4038 3.06651 14.3754 3.13819 14.3754H5.35441C5.42609 14.3754 5.49484 14.4038 5.54552 14.4545C5.59621 14.5052 5.62468 14.5739 5.62468 14.6456V16.8618C5.62468 16.9335 5.59621 17.0022 5.54552 17.0529C5.49484 17.1036 5.42609 17.1321 5.35441 17.1321Z" fill="#3E4958"/>
<path d="M7.02701 15.4594C6.95533 15.4594 6.88659 15.4309 6.8359 15.3802C6.78522 15.3296 6.75674 15.2608 6.75674 15.1891V13.2432H4.8108C4.73912 13.2432 4.67037 13.2147 4.61969 13.164C4.569 13.1134 4.54053 13.0446 4.54053 12.9729C4.54053 12.9013 4.569 12.8325 4.61969 12.7818C4.67037 12.7311 4.73912 12.7027 4.8108 12.7027H7.02701C7.09869 12.7027 7.16744 12.7311 7.21812 12.7818C7.26881 12.8325 7.29728 12.9013 7.29728 12.9729V15.1891C7.29728 15.2608 7.26881 15.3296 7.21812 15.3802C7.16744 15.4309 7.09869 15.4594 7.02701 15.4594Z" fill="#3E4958"/>
<path d="M10.0002 12.1081C9.58326 12.1081 9.17568 11.9844 8.829 11.7528C8.48232 11.5211 8.21212 11.1919 8.05256 10.8067C7.893 10.4215 7.85126 9.9976 7.9326 9.58867C8.01394 9.17974 8.21472 8.80411 8.50954 8.50928C8.80437 8.21446 9.18 8.01368 9.58893 7.93234C9.99786 7.851 10.4217 7.89274 10.8069 8.0523C11.1921 8.21186 11.5214 8.48206 11.753 8.82874C11.9847 9.17542 12.1083 9.583 12.1083 9.99994C12.1077 10.5589 11.8854 11.0947 11.4902 11.4899C11.0949 11.8851 10.5591 12.1074 10.0002 12.1081ZM10.0002 8.43237C9.69017 8.43237 9.38709 8.52431 9.12931 8.69656C8.87152 8.8688 8.6706 9.11362 8.55196 9.40006C8.43331 9.6865 8.40227 10.0017 8.46275 10.3058C8.52324 10.6098 8.67253 10.8892 8.89176 11.1084C9.11099 11.3276 9.39031 11.4769 9.69439 11.5374C9.99846 11.5979 10.3136 11.5668 10.6001 11.4482C10.8865 11.3295 11.1313 11.1286 11.3036 10.8708C11.4758 10.6131 11.5678 10.31 11.5678 9.99994C11.5673 9.58433 11.4021 9.18586 11.1082 8.89198C10.8143 8.59809 10.4158 8.4328 10.0002 8.43237Z" fill="#3E4958"/>
</svg>
