<svg width="24" height="24" viewBox="0 0 24 24" fill="none" xmlns="http://www.w3.org/2000/svg">
<g clip-path="url(#clip0)">
<path d="M12.5934 11.407C12.4101 11.2237 12.1134 11.2237 11.9301 11.407C11.7473 11.5898 11.7473 11.8865 11.9301 12.0698C12.1134 12.2526 12.4101 12.2526 12.5934 12.0698C12.7762 11.8865 12.7762 11.5898 12.5934 11.407Z" fill="#3E4958"/>
<path d="M18.5594 5.44084C17.6435 4.52495 16.1607 4.5249 15.2447 5.44084C14.3312 6.35439 14.3311 7.84126 15.2449 8.75555C16.1587 9.66886 17.6456 9.66924 18.5594 8.75546C19.4752 7.83962 19.4754 6.35682 18.5594 5.44084ZM17.8965 8.09251C17.3484 8.64066 16.4562 8.64066 15.9078 8.0926C15.3596 7.54407 15.3595 6.65185 15.9077 6.10375C16.4572 5.55423 17.3469 5.55414 17.8965 6.10375C18.446 6.65321 18.4461 7.54295 17.8965 8.09251Z" fill="#3E4958"/>
<path d="M23.8628 0.137301C23.7707 0.0452857 23.6451 -0.00458915 23.5145 0.000332718C23.4085 0.00412959 20.885 0.105567 17.8852 1.16583C15.4815 2.01455 13.4779 3.22969 11.9301 4.77749C11.5833 5.12432 11.2458 5.4921 10.9229 5.87418C9.39251 4.97334 8.16617 5.25581 7.39091 5.6707C5.60587 6.62601 4.50098 9.21988 4.50098 11.0752C4.50112 11.2647 4.61535 11.4357 4.79048 11.5082C4.84846 11.5323 4.9094 11.5439 4.96977 11.5439C5.09179 11.5439 5.21165 11.4963 5.30132 11.4066C6.24271 10.4652 7.40385 10.5241 7.78316 10.574L7.94731 10.7382C7.62425 11.5069 7.364 12.2713 7.17313 13.0148C7.10422 13.2839 7.12747 13.5686 7.22989 13.829C6.77858 14.037 6.34316 14.3424 5.96404 14.7215C4.75743 15.9282 4.51241 18.8688 4.50257 18.9934C4.49179 19.1302 4.54138 19.2648 4.63837 19.3618C4.72663 19.45 4.84602 19.4991 4.96977 19.4991C4.98205 19.4991 4.99438 19.4986 5.00671 19.4976C5.1313 19.4878 8.07205 19.2428 9.27866 18.0362C9.65764 17.6572 9.96298 17.2218 10.171 16.7706C10.4467 16.879 10.7305 16.8924 10.9857 16.827C11.7288 16.6362 12.4931 16.376 13.262 16.0529L13.4261 16.2171C13.476 16.5964 13.5349 17.7576 12.5935 18.6989C12.4595 18.8329 12.4194 19.0345 12.4919 19.2097C12.5644 19.3848 12.7354 19.499 12.925 19.499C14.7803 19.499 17.3741 18.3941 18.3294 16.6091C18.7443 15.8339 19.0268 14.6076 18.1259 13.0772C18.5078 12.7544 18.8756 12.4169 19.2226 12.0699C20.7704 10.5221 21.9855 8.51853 22.8342 6.11498C23.8945 3.11508 23.9959 0.591519 23.9997 0.485582C24.0044 0.355504 23.9548 0.229364 23.8628 0.137301ZM5.54901 10.067C5.84019 8.65775 6.68596 7.1114 7.83345 6.49724C8.60028 6.0869 9.43845 6.12712 10.3296 6.61494C9.57041 7.61347 8.91036 8.68925 8.36019 9.82527C8.3532 9.82095 8.26883 9.71488 8.11208 9.67953C8.04763 9.66495 6.80736 9.39819 5.54901 10.067ZM8.61575 17.3733C7.97122 18.0178 6.45927 18.3577 5.50363 18.4965C5.64247 17.5408 5.98246 16.0289 6.62694 15.3844C6.98788 15.0235 7.40638 14.7499 7.82703 14.5957L9.40447 16.1732C9.25034 16.5938 8.97673 17.0123 8.61575 17.3733ZM10.7528 15.9189C10.6171 15.9536 10.46 15.9026 10.3432 15.786C9.73676 15.1796 9.49953 14.9423 9.42509 14.8679C9.28859 14.7314 8.95386 14.3967 8.2145 13.6573C8.0976 13.5401 8.0466 13.3831 8.08124 13.2477C8.23138 12.6629 8.42773 12.063 8.66652 11.4574L12.5428 15.3337C11.9371 15.5725 11.3373 15.7688 10.7528 15.9189ZM17.503 16.1667C16.8888 17.3142 15.3425 18.16 13.9333 18.4511C14.3826 17.6057 14.4817 16.5294 14.3175 15.8767C14.2794 15.7251 14.1805 15.6489 14.175 15.64C15.3109 15.0898 16.3866 14.4297 17.3852 13.6705C17.8731 14.5618 17.9132 15.4001 17.503 16.1667ZM18.5598 11.407C18.1374 11.8294 17.6826 12.2374 17.2079 12.6198C16.0669 13.5385 14.811 14.3167 13.4711 14.9362L9.06397 10.5291C9.68347 9.18917 10.4617 7.9333 11.3803 6.79241C11.763 6.31743 12.171 5.86256 12.5932 5.4404C13.9819 4.05168 15.7741 2.94647 17.9215 2.15091L21.8493 6.07865C21.0538 8.22603 19.9486 10.0183 18.5598 11.407ZM22.1866 5.09001L18.9102 1.81364C20.6952 1.25921 22.2481 1.0516 23.0233 0.976971C22.9486 1.75224 22.7409 3.30515 22.1866 5.09001Z" fill="#3E4958"/>
<path d="M11.2674 19.3616C11.0843 19.1786 10.7874 19.1787 10.6044 19.3617L9.27882 20.6878C9.09582 20.8709 9.09587 21.1677 9.27892 21.3507C9.46206 21.5337 9.75887 21.5337 9.94187 21.3506L11.2675 20.0245C11.4505 19.8414 11.4504 19.5446 11.2674 19.3616Z" fill="#3E4958"/>
<path d="M4.63856 12.7325C4.45556 12.5495 4.1588 12.5495 3.97566 12.7325L2.64956 14.0581C2.46647 14.2411 2.46642 14.5379 2.64942 14.721C2.83237 14.904 3.12914 14.9042 3.31233 14.7211L4.63842 13.3954C4.82151 13.2124 4.82156 12.9156 4.63856 12.7325Z" fill="#3E4958"/>
<path d="M7.95308 20.025C7.77012 19.8419 7.47326 19.8419 7.29017 20.0249L4.11486 23.1998C3.93177 23.3828 3.93177 23.6796 4.11482 23.8627C4.29777 24.0457 4.59463 24.0458 4.77772 23.8627L7.95303 20.6879C8.13612 20.5048 8.13612 20.208 7.95308 20.025Z" fill="#3E4958"/>
<path d="M4.20308 20.025C4.02008 19.8419 3.72322 19.8419 3.54017 20.0249L0.364865 23.1998C0.181772 23.3828 0.181772 23.6796 0.364818 23.8627C0.547771 24.0457 0.84463 24.0458 1.02772 23.8627L4.20303 20.6879C4.38612 20.5048 4.38612 20.208 4.20308 20.025Z" fill="#3E4958"/>
<path d="M3.97502 16.0469C3.79202 15.8639 3.49516 15.8639 3.31212 16.047L0.137279 19.2223C-0.0457675 19.4053 -0.0457675 19.7021 0.137326 19.8852C0.320372 20.0682 0.617184 20.0682 0.800231 19.8852L3.97507 16.7099C4.15811 16.5268 4.15811 16.23 3.97502 16.0469Z" fill="#3E4958"/>
<path d="M14.5817 9.41805C14.3986 9.235 14.1019 9.235 13.9187 9.41805L13.2559 10.0809C13.0729 10.2639 13.0729 10.5607 13.2559 10.7438C13.439 10.9269 13.7358 10.9269 13.9189 10.7438L14.5817 10.081C14.7647 9.89795 14.7647 9.60114 14.5817 9.41805Z" fill="#3E4958"/>
</g>
<defs>
<clipPath id="clip0">
<rect width="24" height="24" fill="white"/>
</clipPath>
</defs>
</svg>
