<svg width="20" height="20" viewBox="0 0 20 20" fill="none" xmlns="http://www.w3.org/2000/svg">
<g clip-path="url(#clip0)">
<path d="M18.6757 4.15467C18.409 4.15467 18.2757 4.15034 18.119 3.99234C17.9623 3.83434 17.9523 3.69767 17.9547 3.43234C17.9995 3.05172 17.8675 2.67155 17.5963 2.40069C17.3252 2.12982 16.9449 1.99813 16.5643 2.04334C16.2977 2.04334 16.1643 2.039 16.0077 1.881C15.851 1.723 15.8437 1.58867 15.8453 1.32434C15.8853 0.943895 15.7543 0.565359 15.4877 0.291005C14.884 -0.312995 14.1043 0.148005 13.7767 0.476338C12.9358 1.41356 12.31 2.52339 11.9433 3.728C10.3512 3.27158 8.6368 3.71582 7.46668 4.888L4.89401 7.46C3.72347 8.63274 3.28082 10.3479 3.73768 11.9407C2.52986 12.3072 1.417 12.9339 0.477346 13.7767C0.149346 14.1047 -0.311654 14.8843 0.292012 15.4877C0.566342 15.7543 0.944897 15.8853 1.32535 15.8453C1.59201 15.8453 1.72535 15.8497 1.88201 16.0077C2.03868 16.1657 2.04601 16.3 2.04435 16.5643C1.99914 16.9449 2.13083 17.3252 2.40169 17.5963C2.67256 17.8675 3.05273 17.9995 3.43335 17.9547C3.70001 17.9547 3.83335 17.9597 3.99335 18.119C4.15335 18.2783 4.15735 18.4113 4.15568 18.6757C4.11575 19.0561 4.24677 19.4346 4.51335 19.709C4.68951 19.8964 4.93517 20.0027 5.19235 20.003C5.58419 19.9764 5.95231 19.8057 6.22568 19.5237C7.07644 18.5746 7.70713 17.4494 8.07268 16.2283C9.64881 16.6597 11.3352 16.2121 12.49 15.056L15.0623 12.484C16.2155 11.3275 16.6622 9.64257 16.2333 8.06667C17.4518 7.70223 18.5747 7.07326 19.522 6.22467C19.85 5.89667 20.311 5.117 19.7073 4.51367C19.4335 4.24733 19.0557 4.11588 18.6757 4.15467ZM7.80001 8.297C7.77132 9.91613 7.5132 11.523 7.03335 13.0697L6.92101 13.457C6.80601 13.8493 6.68968 14.252 6.59468 14.661C6.56701 14.6347 6.53735 14.612 6.51035 14.5847L5.36668 13.4377C5.32535 13.396 5.28935 13.3513 5.25035 13.3087C5.31901 12.6487 5.41301 11.9803 5.50635 11.332C5.58935 10.7553 5.67535 10.159 5.74201 9.56934C5.82624 8.86047 5.86787 8.14719 5.86668 7.43334L7.50001 5.8C7.70218 6.61686 7.80294 7.45551 7.80001 8.297ZM5.18435 8.13034C5.16668 8.56367 5.13268 9.01167 5.07735 9.494C5.01068 10.0737 4.92701 10.6647 4.84401 11.2363C4.78435 11.6503 4.72568 12.073 4.67135 12.4977C3.92743 11.075 4.13129 9.34187 5.18501 8.13067L5.18435 8.13034ZM5.75101 19.05C5.73101 19.0693 5.26468 19.52 4.98168 19.2363C4.82368 19.0783 4.81735 18.944 4.81901 18.68C4.86415 18.2987 4.73203 17.9177 4.46051 17.6462C4.18899 17.3746 3.80801 17.2425 3.42668 17.2877C3.16201 17.29 3.02668 17.283 2.87035 17.125C2.71401 16.967 2.70601 16.833 2.70768 16.5687C2.74751 16.1883 2.61664 15.8098 2.35035 15.5353C2.07603 15.2687 1.69743 15.1378 1.31701 15.178C1.05301 15.178 0.917012 15.1733 0.760679 15.0153C0.476346 14.731 0.927346 14.2657 0.946012 14.2487C1.82134 13.4769 2.85295 12.9032 3.97035 12.5667C4.19451 13.0664 4.50746 13.5213 4.89401 13.9093L6.04135 15.0563C6.44417 15.4582 6.91913 15.7806 7.44135 16.0067C7.10306 17.1304 6.52729 18.1684 5.75301 19.0503L5.75101 19.05ZM7.17968 15.1167C7.27701 14.6223 7.41968 14.1257 7.56101 13.6433L7.67468 13.252C8.17193 11.646 8.43859 9.97761 8.46668 8.29667C8.47026 7.27045 8.32704 6.249 8.04135 5.26334C8.51658 4.81878 9.09658 4.50172 9.72735 4.34167C10.7119 6.22495 11.1777 8.33627 11.077 10.459C10.9437 12.343 10.2497 14.159 9.56601 15.7077C8.7284 15.7734 7.892 15.5664 7.18168 15.1177L7.17968 15.1167ZM12.0167 14.5833C11.5551 15.0461 10.9838 15.3844 10.356 15.5667C11.0947 13.968 11.5634 12.2579 11.743 10.506C11.8506 8.33524 11.3924 6.17375 10.4133 4.23334C10.5053 4.227 10.5973 4.22 10.6907 4.22C11.3268 4.21871 11.9535 4.37406 12.5153 4.67234C13.111 5.91762 13.4969 7.25267 13.6577 8.62367C13.838 10.1792 13.728 11.7546 13.3333 13.27L12.0167 14.5833ZM14.589 12.0113L14.204 12.4C14.4299 11.1278 14.4689 9.82946 14.3197 8.546C14.1978 7.50667 13.9524 6.48557 13.5887 5.50434L14.591 6.507C16.1088 8.02839 16.1088 10.4913 14.591 12.0127L14.589 12.0113ZM19.0517 5.75134C18.1716 6.52457 17.1351 7.09906 16.013 7.43567C15.7867 6.91353 15.4642 6.43861 15.0623 6.03567L13.915 4.88867C13.5262 4.50068 13.0705 4.18628 12.5697 3.96067C12.9085 2.84941 13.4803 1.82315 14.247 0.950338C14.2667 0.931005 14.7323 0.480005 15.0163 0.764005C15.1743 0.922005 15.1807 1.05634 15.179 1.32034C15.1392 1.70071 15.2701 2.07916 15.5363 2.35367C15.8106 2.62037 16.1893 2.7513 16.5697 2.711C16.8337 2.711 16.9697 2.71534 17.126 2.87367C17.2823 3.032 17.2903 3.16567 17.2887 3.43C17.2435 3.81133 17.3757 4.19232 17.6472 4.46384C17.9187 4.73536 18.2997 4.86747 18.681 4.82234C18.9443 4.82234 19.079 4.827 19.2373 4.985C19.521 5.26667 19.0697 5.73334 19.0517 5.75134Z" fill="#3E4958"/>
<path d="M4.09989 14.1C4.01754 13.9355 3.81748 13.8688 3.65289 13.951L2.69989 14.4267C2.59336 14.4803 2.52352 14.5866 2.51667 14.7057C2.50981 14.8247 2.56699 14.9384 2.66667 15.0038C2.76634 15.0693 2.89336 15.0766 2.99989 15.023L3.94956 14.548C4.02906 14.5087 4.08961 14.4393 4.11783 14.3553C4.14604 14.2712 4.13959 14.1793 4.09989 14.1Z" fill="#3E4958"/>
<path d="M5.84936 15.8517C5.68487 15.7692 5.48463 15.8356 5.40203 16L4.92703 16.95C4.88748 17.0291 4.88099 17.1207 4.909 17.2046C4.93701 17.2885 4.99722 17.3578 5.07636 17.3973C5.24095 17.4795 5.44101 17.4128 5.52336 17.2483L6.00003 16.3C6.03981 16.2206 6.04627 16.1287 6.01798 16.0445C5.9897 15.9603 5.92901 15.8909 5.84936 15.8517Z" fill="#3E4958"/>
<path d="M4.986 14.9643C4.85583 14.8342 4.64483 14.8342 4.51466 14.9643L3.56466 15.914C3.47801 15.9977 3.44326 16.1216 3.47376 16.2382C3.50427 16.3547 3.59528 16.4457 3.71183 16.4762C3.82837 16.5067 3.9523 16.472 4.036 16.3853L4.986 15.4357C5.11613 15.3055 5.11613 15.0945 4.986 14.9643Z" fill="#3E4958"/>
<path d="M14.874 2.55234C14.7096 2.46973 14.5095 2.53581 14.4266 2.70001L13.9516 3.65C13.8973 3.75667 13.9043 3.88428 13.97 3.98433C14.0357 4.08438 14.1501 4.14151 14.2695 4.134C14.389 4.12649 14.4953 4.0555 14.5479 3.948L15.023 3.00001C15.0626 2.9209 15.0692 2.82925 15.0413 2.74528C15.0133 2.6613 14.9531 2.59189 14.874 2.55234Z" fill="#3E4958"/>
<path d="M16.9506 4.92702L15.9999 5.40202C15.8931 5.45561 15.823 5.56212 15.816 5.68142C15.809 5.80073 15.8662 5.91471 15.966 5.98042C16.0658 6.04614 16.1931 6.05361 16.3 6.00002L17.2503 5.52502C17.415 5.44218 17.4813 5.24153 17.3985 5.07685C17.3156 4.91218 17.115 4.84584 16.9503 4.92869L16.9506 4.92702Z" fill="#3E4958"/>
<path d="M16.3853 3.56466C16.2552 3.43453 16.0442 3.43453 15.914 3.56466L14.9643 4.51466C14.8777 4.59835 14.8429 4.72228 14.8734 4.83883C14.9039 4.95537 14.9949 5.04639 15.1115 5.07689C15.228 5.1074 15.352 5.07264 15.4357 4.98599L16.3853 4.03599C16.5154 3.90582 16.5154 3.69482 16.3853 3.56466Z" fill="#3E4958"/>
</g>
<defs>
<clipPath id="clip0">
<rect width="20" height="20" fill="white"/>
</clipPath>
</defs>
</svg>
