<svg width="20" height="20" viewBox="0 0 20 20" fill="none" xmlns="http://www.w3.org/2000/svg">
<path d="M6.87158 9.37502C8.2501 9.37502 9.37158 8.46381 9.37158 7.34377C9.37158 7.26089 9.33866 7.1814 9.28005 7.1228C9.22145 7.06419 9.14196 7.03127 9.05908 7.03127C8.9762 7.03127 8.89672 7.06419 8.83811 7.1228C8.77951 7.1814 8.74658 7.26089 8.74658 7.34377C8.74658 8.03932 8.06967 8.61818 7.18408 8.7301V7.7383C7.21714 7.72181 7.24885 7.70276 7.27893 7.68131L7.80928 7.30283C7.9066 7.2322 7.98569 7.1394 8.04 7.03211C8.0943 6.92482 8.12225 6.80613 8.12154 6.68588C8.12154 6.2733 7.79873 5.93764 7.40193 5.93764H6.34119C5.94439 5.93764 5.62158 6.2733 5.62158 6.68588C5.62087 6.80613 5.64882 6.92482 5.70313 7.03211C5.75743 7.1394 5.83652 7.2322 5.93385 7.30283L6.4642 7.68131C6.49428 7.70277 6.526 7.72183 6.55908 7.7383V8.7301C5.6735 8.61818 4.99658 8.03932 4.99658 7.34377C4.99658 7.26089 4.96366 7.1814 4.90505 7.1228C4.84645 7.06419 4.76696 7.03127 4.68408 7.03127C4.6012 7.03127 4.52172 7.06419 4.46311 7.1228C4.40451 7.1814 4.37158 7.26089 4.37158 7.34377C4.37158 8.46381 5.49307 9.37502 6.87158 9.37502ZM6.29697 6.794C6.28074 6.78112 6.26774 6.76463 6.259 6.74584C6.25027 6.72705 6.24604 6.70648 6.24666 6.68576C6.24666 6.61897 6.29002 6.56252 6.34127 6.56252H7.40205C7.45334 6.56252 7.49666 6.61897 7.49666 6.68576C7.49727 6.70648 7.49304 6.72705 7.4843 6.74584C7.47556 6.76464 7.46255 6.78113 7.44631 6.794L6.91596 7.17244C6.90326 7.18223 6.88767 7.18753 6.87164 7.18753C6.85561 7.18753 6.84002 7.18223 6.82732 7.17244L6.29697 6.794Z" fill="#3E4958"/>
<path d="M8.74634 5.9375C8.91893 5.9375 9.05884 5.79759 9.05884 5.625C9.05884 5.45241 8.91893 5.3125 8.74634 5.3125C8.57375 5.3125 8.43384 5.45241 8.43384 5.625C8.43384 5.79759 8.57375 5.9375 8.74634 5.9375Z" fill="#3E4958"/>
<path d="M4.99658 5.9375C5.16917 5.9375 5.30908 5.79759 5.30908 5.625C5.30908 5.45241 5.16917 5.3125 4.99658 5.3125C4.82399 5.3125 4.68408 5.45241 4.68408 5.625C4.68408 5.79759 4.82399 5.9375 4.99658 5.9375Z" fill="#3E4958"/>
<path d="M15 12.1875C15.2472 12.1875 15.4889 12.1142 15.6945 11.9768C15.9 11.8395 16.0603 11.6443 16.1549 11.4159C16.2495 11.1874 16.2742 10.9361 16.226 10.6936C16.1778 10.4512 16.0587 10.2284 15.8839 10.0536C15.7091 9.87879 15.4863 9.75974 15.2439 9.7115C15.0014 9.66327 14.7501 9.68803 14.5216 9.78264C14.2932 9.87725 14.098 10.0375 13.9607 10.243C13.8233 10.4486 13.75 10.6903 13.75 10.9375C13.7504 11.2689 13.8822 11.5866 14.1165 11.821C14.3509 12.0553 14.6686 12.1871 15 12.1875ZM15 10.3125C15.1236 10.3125 15.2445 10.3491 15.3472 10.4178C15.45 10.4865 15.5301 10.5841 15.5774 10.6983C15.6247 10.8125 15.6371 10.9382 15.613 11.0594C15.5889 11.1807 15.5294 11.292 15.442 11.3794C15.3545 11.4668 15.2432 11.5264 15.1219 11.5505C15.0007 11.5746 14.875 11.5622 14.7608 11.5149C14.6466 11.4676 14.549 11.3875 14.4803 11.2847C14.4117 11.1819 14.375 11.0611 14.375 10.9375C14.3752 10.7718 14.4411 10.6129 14.5583 10.4958C14.6754 10.3786 14.8343 10.3127 15 10.3125Z" fill="#3E4958"/>
<path d="M19.375 12.8125H17.5V8.75001C17.5 8.6859 17.4802 8.62334 17.4433 8.57091L15.2558 5.44591C15.227 5.40475 15.1887 5.37114 15.1441 5.34793C15.0996 5.32473 15.0501 5.31261 14.9998 5.31261C14.9496 5.31261 14.9001 5.32473 14.8555 5.34793C14.8109 5.37114 14.7726 5.40475 14.7438 5.44591L12.5563 8.57091C12.5195 8.62338 12.4998 8.68594 12.5 8.75001V10.7056C12.072 10.1303 11.5011 9.65294 10.7961 9.28474C11.4922 8.46662 11.8715 7.40357 11.8715 6.25001C11.8731 5.7403 11.7958 5.23341 11.6423 4.74736C11.9466 4.58669 12.2088 4.35648 12.4075 4.07542C12.6061 3.79436 12.7357 3.47039 12.7855 3.12985C12.8354 2.7893 12.8042 2.4418 12.6945 2.11557C12.5848 1.78935 12.3997 1.49361 12.1542 1.2524C11.9087 1.01119 11.6097 0.831322 11.2816 0.727407C10.9535 0.623492 10.6055 0.598465 10.2659 0.654363C9.92626 0.71026 9.60463 0.845503 9.32713 1.0491C9.04963 1.2527 8.82409 1.5189 8.66883 1.82607C8.08673 1.64671 7.48054 1.55782 6.87145 1.56251C6.2624 1.55783 5.65624 1.64673 5.07418 1.82611C4.91893 1.51894 4.69339 1.25273 4.4159 1.04913C4.1384 0.84553 3.81677 0.710283 3.47717 0.654381C3.13756 0.59848 2.78956 0.623501 2.46144 0.727412C2.13332 0.831323 1.83436 1.01119 1.58884 1.2524C1.34332 1.4936 1.15819 1.78933 1.04848 2.11556C0.93877 2.44178 0.907586 2.78929 0.957462 3.12983C1.00734 3.47038 1.13686 3.79435 1.33552 4.07541C1.53417 4.35647 1.79633 4.58669 2.10071 4.74736C1.94717 5.2334 1.86984 5.7403 1.87145 6.25001C1.87145 7.40357 2.2509 8.46666 2.9468 9.28474C1.4254 10.0794 0.528364 11.3826 0.344341 13.0792C0.34395 13.0831 0.34356 13.087 0.343286 13.091L0.313247 13.5199C0.312251 13.534 0.312251 13.5482 0.313247 13.5623C0.338233 13.9281 0.469695 14.2786 0.691431 14.5705C0.913167 14.8625 1.21549 15.0833 1.56114 15.2056C1.35496 15.6281 1.2485 16.0923 1.24997 16.5625C1.24997 18.1133 2.37145 19.375 3.74997 19.375C4.49215 19.375 5.15946 19.0089 5.61774 18.4292C6.00336 18.6397 6.43565 18.75 6.87497 18.75C7.31429 18.75 7.74658 18.6397 8.13219 18.4292C8.59047 19.0089 9.25778 19.375 9.99997 19.375C10.9795 19.375 11.8288 18.7377 12.2386 17.8125H19.375C19.4578 17.8125 19.5373 17.7796 19.5959 17.721C19.6545 17.6624 19.6875 17.5829 19.6875 17.5V13.125C19.6875 13.0421 19.6545 12.9626 19.5959 12.904C19.5373 12.8454 19.4578 12.8125 19.375 12.8125ZM15 6.16994L16.5873 8.43751H13.4127L15 6.16994ZM13.125 9.06251H16.875V12.8125H13.3626C13.3133 12.4932 13.2338 12.1793 13.125 11.875V9.06251ZM12.1877 15.2034C12.4822 15.0977 12.7458 14.9204 12.9547 14.6875H13.4375V15.9375H12.437C12.3858 15.6831 12.3021 15.4363 12.1877 15.2034ZM12.7765 13.1409L12.8047 13.5414C12.7822 13.8059 12.6762 14.0564 12.5021 14.2568C12.328 14.4572 12.0947 14.5971 11.8359 14.6563C11.4441 14.1791 10.9078 13.855 10.3059 13.772C10.249 12.5009 9.82051 11.3281 9.12051 10.507C9.56185 10.3205 9.97111 10.0658 10.3333 9.75216C11.7647 10.4379 12.6082 11.6052 12.7765 13.1406V13.1409ZM10.6215 1.25001C10.9648 1.2499 11.2986 1.3629 11.5713 1.57152C11.8441 1.78015 12.0404 2.0728 12.1302 2.40422C12.2199 2.73565 12.1979 3.0874 12.0677 3.40511C11.9375 3.72281 11.7063 3.98878 11.4097 4.16189C11.1916 3.70477 10.8955 3.28913 10.5347 2.93361C10.1625 2.56848 9.72982 2.27051 9.25594 2.05291C9.39162 1.80977 9.58967 1.6072 9.82969 1.46607C10.0697 1.32494 10.343 1.25036 10.6215 1.25001ZM1.55895 2.81251C1.55886 2.46635 1.67372 2.12995 1.88551 1.85613C2.0973 1.58231 2.39403 1.38658 2.7291 1.29966C3.06418 1.21273 3.41863 1.23954 3.73682 1.37588C4.05501 1.51221 4.31892 1.75035 4.48711 2.05291C4.01323 2.27049 3.58058 2.56846 3.20833 2.93361C2.84755 3.2891 2.55145 3.70473 2.33333 4.16185C2.09787 4.0239 1.90256 3.82682 1.76673 3.59015C1.6309 3.35347 1.55927 3.0854 1.55895 2.81251ZM3.64657 3.37923C4.43938 2.59962 5.55465 2.18751 6.87145 2.18751C8.18825 2.18751 9.30352 2.59962 10.0964 3.37927C10.838 4.10857 11.2465 5.12806 11.2465 6.25001C11.2465 7.37197 10.838 8.39146 10.0964 9.12076C9.30352 9.9004 8.18836 10.3125 6.87145 10.3125C5.55454 10.3125 4.43938 9.90041 3.64657 9.1208C2.90489 8.39146 2.49645 7.37197 2.49645 6.25001C2.49645 5.12806 2.90489 4.10857 3.64657 3.37923ZM0.938286 13.5413L0.966333 13.1408C1.13473 11.6051 1.97805 10.4378 3.40958 9.75205C3.77335 10.0671 4.1846 10.3226 4.62813 10.5093C3.9302 11.3306 3.50129 12.5069 3.44407 13.7718C2.84161 13.8549 2.30465 14.1797 1.9129 14.6574C1.65284 14.5993 1.41811 14.4597 1.24283 14.259C1.06755 14.0582 0.960868 13.8068 0.938286 13.5413ZM3.74997 18.75C2.71606 18.75 1.87497 17.7687 1.87497 16.5625C1.87497 15.3563 2.71606 14.375 3.74997 14.375C4.78387 14.375 5.62497 15.3563 5.62497 16.5625C5.62497 17.7687 4.78387 18.75 3.74997 18.75ZM6.87497 18.125C6.55288 18.124 6.23573 18.0459 5.94997 17.8973C6.14891 17.4805 6.25144 17.0243 6.24997 16.5625C6.24997 15.1337 5.29774 13.9511 4.06981 13.7738C4.12989 12.5551 4.56774 11.441 5.27083 10.7318C5.79279 10.8715 6.33112 10.9407 6.87145 10.9375C7.41361 10.9408 7.95375 10.8711 8.47735 10.7305C9.18266 11.4395 9.62051 12.5492 9.68024 13.7739C8.45227 13.9511 7.49997 15.1336 7.49997 16.5625C7.49849 17.0243 7.60103 17.4805 7.79997 17.8973C7.5142 18.0459 7.19705 18.124 6.87497 18.125ZM9.99997 18.75C8.96606 18.75 8.12497 17.7687 8.12497 16.5625C8.12497 15.3563 8.96606 14.375 9.99997 14.375C11.0339 14.375 11.875 15.3563 11.875 16.5625C11.875 17.7687 11.0339 18.75 9.99997 18.75ZM12.5 16.5625H13.75C13.8328 16.5625 13.9123 16.5296 13.9709 16.471C14.0295 16.4124 14.0625 16.3329 14.0625 16.25V14.375C14.0625 14.2921 14.0295 14.2126 13.9709 14.154C13.9123 14.0954 13.8328 14.0625 13.75 14.0625H13.3264C13.3837 13.9013 13.4185 13.733 13.4298 13.5623C13.4307 13.5482 13.4307 13.534 13.4298 13.5199L13.424 13.4375H14.6875V17.1875H12.437C12.4788 16.9818 12.4999 16.7724 12.5 16.5625ZM19.0625 17.1875H15.3125V13.4375H19.0625V17.1875Z" fill="#3E4958"/>
<path d="M16.2502 16.5625H18.1252C18.1785 16.5625 18.2309 16.5489 18.2774 16.5229C18.3239 16.497 18.3631 16.4596 18.3911 16.4143C18.4191 16.369 18.435 16.3172 18.4374 16.264C18.4398 16.2108 18.4285 16.1579 18.4047 16.1102L17.4672 14.2352C17.4413 14.1833 17.4014 14.1397 17.352 14.1092C17.3026 14.0787 17.2458 14.0625 17.1877 14.0625C17.1297 14.0625 17.0728 14.0787 17.0235 14.1092C16.9741 14.1397 16.9342 14.1833 16.9082 14.2352L15.9707 16.1102C15.9469 16.1579 15.9357 16.2108 15.9381 16.264C15.9405 16.3172 15.9564 16.369 15.9844 16.4143C16.0124 16.4596 16.0515 16.497 16.0981 16.5229C16.1446 16.5489 16.197 16.5625 16.2502 16.5625ZM17.1877 15.0738L17.6196 15.9375H16.7559L17.1877 15.0738Z" fill="#3E4958"/>
</svg>
