<svg width="20" height="20" viewBox="0 0 20 20" fill="none" xmlns="http://www.w3.org/2000/svg">
<g clip-path="url(#clip0)">
<path d="M1.65649 12.8408C1.8183 12.8408 1.94946 12.7096 1.94946 12.5478C1.94946 12.386 1.8183 12.2548 1.65649 12.2548C1.49469 12.2548 1.36353 12.386 1.36353 12.5478C1.36353 12.7096 1.49469 12.8408 1.65649 12.8408Z" fill="#3E4958"/>
<path d="M18.51 12.8408C18.6718 12.8408 18.803 12.7096 18.803 12.5478C18.803 12.386 18.6718 12.2548 18.51 12.2548C18.3482 12.2548 18.217 12.386 18.217 12.5478C18.217 12.7096 18.3482 12.8408 18.51 12.8408Z" fill="#3E4958"/>
<path d="M1.65649 15.5963C1.8183 15.5963 1.94946 15.4651 1.94946 15.3033C1.94946 15.1415 1.8183 15.0103 1.65649 15.0103C1.49469 15.0103 1.36353 15.1415 1.36353 15.3033C1.36353 15.4651 1.49469 15.5963 1.65649 15.5963Z" fill="#3E4958"/>
<path d="M18.51 15.5963C18.6718 15.5963 18.803 15.4651 18.803 15.3033C18.803 15.1415 18.6718 15.0103 18.51 15.0103C18.3482 15.0103 18.217 15.1415 18.217 15.3033C18.217 15.4651 18.3482 15.5963 18.51 15.5963Z" fill="#3E4958"/>
<path d="M1.65649 10.2173C1.8183 10.2173 1.94946 10.0861 1.94946 9.92429C1.94946 9.76249 1.8183 9.63132 1.65649 9.63132C1.49469 9.63132 1.36353 9.76249 1.36353 9.92429C1.36353 10.0861 1.49469 10.2173 1.65649 10.2173Z" fill="#3E4958"/>
<path d="M18.51 10.2173C18.6718 10.2173 18.803 10.0861 18.803 9.92429C18.803 9.76249 18.6718 9.63132 18.51 9.63132C18.3482 9.63132 18.217 9.76249 18.217 9.92429C18.217 10.0861 18.3482 10.2173 18.51 10.2173Z" fill="#3E4958"/>
<path d="M15.6309 5.93646C15.6063 5.77654 15.4565 5.66697 15.2968 5.69142C15.1369 5.71603 15.0272 5.8656 15.0518 6.02552L15.2121 7.06818C15.2149 7.08615 15.2192 7.10349 15.225 7.12005L14.9567 7.48591C14.861 7.61638 14.8892 7.79974 15.0196 7.8954C15.0718 7.93368 15.1325 7.95216 15.1927 7.95216C15.2828 7.95216 15.3717 7.91068 15.4292 7.83243L15.6977 7.46634C15.7004 7.46642 15.7032 7.46673 15.706 7.46673C15.7208 7.46673 15.7358 7.4656 15.7508 7.46329L16.7935 7.30298C16.9534 7.27837 17.0631 7.1288 17.0385 6.96888C17.0139 6.80896 16.8643 6.69931 16.7044 6.72384L16.1835 6.80396L16.7806 5.98994C16.7834 5.99002 16.7861 5.99029 16.7888 5.99029C16.8036 5.99029 16.8186 5.98916 16.8337 5.98685L17.8764 5.82654C18.0363 5.80193 18.146 5.65236 18.1214 5.49244C18.0968 5.33252 17.9472 5.22283 17.7873 5.2474L17.2664 5.32748L18.0999 4.19111C18.1956 4.06064 18.1674 3.87728 18.0369 3.78162C17.9065 3.68596 17.7232 3.71412 17.6274 3.84459L16.794 4.98095L16.7139 4.46006C16.6893 4.30014 16.5395 4.19049 16.3798 4.21498C16.2199 4.23959 16.1101 4.38916 16.1347 4.54908L16.2951 5.59174C16.2978 5.6097 16.3022 5.62705 16.3079 5.64361L15.7111 6.4574L15.6309 5.93646Z" fill="#3E4958"/>
<path d="M19.1912 8.31967H18.7172C18.765 8.26717 18.8105 8.21213 18.8531 8.15408C19.2227 7.65029 19.3333 7.01701 19.1566 6.4167C19.1458 6.37979 19.1657 6.34322 19.1879 6.32131C19.3384 6.17295 19.469 6.00443 19.5761 5.82049C20.1571 4.82178 19.923 3.51518 19.0316 2.78123C18.518 2.35842 17.8729 2.171 17.2154 2.25334C16.5573 2.33576 15.9789 2.67557 15.5869 3.21014C15.5518 3.25787 15.5187 3.30729 15.4872 3.35772C14.9909 3.02365 14.4432 2.82162 13.8872 2.76897L13.8698 2.671C13.7893 2.21916 13.3564 1.91686 12.9043 1.9974C12.4525 2.07787 12.1503 2.51096 12.2307 2.96279L12.2482 3.06076C11.7285 3.30967 11.2746 3.70275 10.9195 4.20826C10.9173 4.20775 10.9154 4.20693 10.9132 4.20647C10.7532 4.17127 10.5845 4.21518 10.4618 4.32377C10.2738 4.49025 10.0268 4.72268 9.76594 5.00463C9.52379 4.77014 9.25484 4.58326 8.96828 4.44869C9.02098 4.40166 9.07305 4.35342 9.12359 4.30275C9.7218 3.70369 9.94305 2.63639 10.0104 2.20533C10.0313 2.0717 9.98664 1.93486 9.89094 1.83932C9.79523 1.74377 9.65832 1.69936 9.52477 1.72041C9.09379 1.78842 8.0268 2.01123 7.42863 2.61029C7.15328 2.88604 6.93609 3.18854 6.79129 3.48748C6.46203 3.02936 5.94281 2.7224 5.34648 2.67346C5.18504 2.66022 5.04375 2.78018 5.03051 2.94147C5.01727 3.10272 5.13727 3.2442 5.29852 3.25744C5.88875 3.30588 6.37191 3.71299 6.52641 4.27072C6.32508 4.22139 6.11934 4.1965 5.9109 4.1965C5.70234 4.1965 5.49867 4.2217 5.30188 4.26959C5.2657 4.14799 5.22004 4.02904 5.1648 3.91404C4.66453 2.8726 3.45184 2.33283 2.34395 2.65857C1.70582 2.84619 1.18859 3.27475 0.887578 3.86525C0.586328 4.45611 0.542891 5.12549 0.765195 5.7501C0.808086 5.87061 0.861172 5.98857 0.92293 6.1008C0.94043 6.13256 0.937773 6.17483 0.916211 6.20846C0.581133 6.73072 0.508125 7.36502 0.715898 7.94873C0.76207 8.0785 0.8225 8.2026 0.894102 8.31967H0.808711C0.362812 8.31967 0 8.68244 0 9.12838V16.1449C0 16.5908 0.362812 16.9537 0.808711 16.9537H1.32641V17.6688C1.32641 18.0085 1.60277 18.2848 1.94246 18.2848H13.4204C13.5822 18.2848 13.7134 18.1537 13.7134 17.9919C13.7134 17.8301 13.5822 17.6989 13.4204 17.6989H1.94246C1.92586 17.6989 1.91234 17.6854 1.91234 17.6688V16.9537H17.924V17.6688C17.924 17.6854 17.9105 17.6989 17.8938 17.6989H14.5923C14.4305 17.6989 14.2993 17.8301 14.2993 17.9919C14.2993 18.1537 14.4305 18.2848 14.5923 18.2848H17.8938C18.2335 18.2848 18.5099 18.0085 18.5099 17.6688V16.9537H19.1912C19.6372 16.9537 20 16.5908 20 16.1449V9.12838C20 8.68244 19.6372 8.31967 19.1912 8.31967ZM15.9073 3.80354C15.9511 3.71748 16.0023 3.63443 16.0593 3.55666C16.3552 3.1533 16.7916 2.8969 17.2882 2.83471C17.7844 2.77252 18.2713 2.9142 18.6591 3.23354C19.3314 3.78705 19.5079 4.77248 19.0696 5.5258C18.9888 5.66482 18.8902 5.79209 18.7766 5.904C18.5942 6.08381 18.5244 6.34365 18.5946 6.58209C18.7192 7.00565 18.6412 7.45232 18.3807 7.80756C18.1994 8.05471 17.9491 8.23158 17.6568 8.31971H13.6148C13.5935 8.23842 13.5592 8.16076 13.5116 8.09049C13.3057 7.78674 13.2938 7.38939 13.4814 7.07822C13.5526 6.96018 13.6451 6.86162 13.7565 6.78529C14.0002 6.61826 14.105 6.30256 14.0114 6.01764C13.8702 5.58791 13.9452 5.11404 14.2121 4.75014C14.4705 4.39787 14.8697 4.18943 15.3073 4.17818C15.563 4.17158 15.7929 4.02803 15.9073 3.80354ZM12.5458 3.56838C12.7571 3.47217 12.8762 3.24529 12.8355 3.01674L12.8076 2.86006C12.7838 2.72627 12.8733 2.59807 13.007 2.57424C13.1408 2.55029 13.2691 2.63986 13.2929 2.77365L13.3208 2.93025C13.3614 3.15885 13.5515 3.33068 13.783 3.34807C14.1431 3.37514 14.5015 3.4801 14.8413 3.65518C14.4025 3.76822 14.0148 4.02838 13.7397 4.40354C13.3611 4.91963 13.2546 5.59139 13.4547 6.20045C13.4675 6.23947 13.4554 6.28119 13.4252 6.3019C13.2443 6.42588 13.0944 6.58525 12.9796 6.77564C12.6946 7.24838 12.6921 7.84221 12.9648 8.31963H11.864C11.8777 8.26486 11.8908 8.2099 11.903 8.15475C12.0314 7.57033 11.9975 6.86314 11.8019 6.05283C11.667 5.49393 11.4823 4.99576 11.3336 4.64158C11.6499 4.15635 12.0665 3.7867 12.5458 3.56838ZM10.7765 4.82842C11.5251 6.58006 11.4146 7.64748 11.3307 8.02896C11.3091 8.12678 11.2847 8.22393 11.258 8.31967H10.243C10.2879 7.82498 10.3857 7.32158 10.535 6.82006C10.5812 6.66498 10.4929 6.50186 10.3378 6.45568C10.1827 6.40959 10.0196 6.49783 9.9734 6.65291C9.80777 7.20947 9.70129 7.76916 9.65523 8.31963H8.81668C8.83234 8.05147 8.87039 7.77721 8.93105 7.50135C9.01492 7.1199 9.36227 6.10459 10.7765 4.82842ZM7.84328 3.02428C7.95883 2.90857 8.39625 2.53639 9.39207 2.33897C9.19609 3.33506 8.82453 3.77307 8.70902 3.88877C8.57809 4.0199 8.43875 4.13611 8.29484 4.23522C8.14922 4.2099 8.00141 4.19654 7.85219 4.19654C7.62106 4.19654 7.39332 4.22783 7.17117 4.28846C7.17305 4.27619 7.17441 4.26373 7.17473 4.251C7.18273 3.90443 7.4452 3.42295 7.84328 3.02428ZM6.75945 4.97006C6.83695 5.00561 6.92617 5.00561 7.00367 4.97006C7.2752 4.84557 7.56066 4.78244 7.85219 4.78244C8.40957 4.78244 8.94848 5.01779 9.38203 5.44787C9.36539 5.46846 8.4873 6.79111 8.35879 7.37557C8.28898 7.69318 8.24609 8.00979 8.22996 8.31967H3.50227C3.47816 8.14873 3.46574 7.97455 3.46574 7.79979C3.46574 6.13604 4.56262 4.78248 5.91094 4.78248C6.20242 4.78244 6.48789 4.84557 6.75945 4.97006ZM1.63719 8.31201C1.4693 8.1574 1.34504 7.96904 1.26789 7.75225C1.12141 7.34068 1.17297 6.89334 1.40938 6.52483C1.54746 6.30955 1.5577 6.03873 1.43613 5.81811C1.38953 5.7335 1.34953 5.64455 1.31719 5.55365C1.14945 5.08236 1.18223 4.57725 1.40957 4.13139C1.63672 3.68584 2.02723 3.36244 2.50922 3.22072C3.34473 2.97514 4.2593 3.38225 4.63664 4.16779C4.68371 4.26572 4.72098 4.3676 4.74961 4.47162C3.65285 5.01443 2.87977 6.3017 2.87977 7.79975C2.87977 7.974 2.89051 8.14799 2.91129 8.31963H1.64469C1.64215 8.31713 1.63984 8.31443 1.63719 8.31201ZM0.808711 8.90561H19.1912C19.3141 8.90561 19.4141 9.00557 19.4141 9.12838V10.9343H4.87492C4.71312 10.9343 4.58195 11.0654 4.58195 11.2272C4.58195 11.389 4.71312 11.5202 4.87492 11.5202H19.4141V13.7085H0.585938V11.5202H3.70305C3.86484 11.5202 3.99602 11.389 3.99602 11.2272C3.99602 11.0654 3.86484 10.9343 3.70305 10.9343H0.585938V9.12838C0.585938 9.00553 0.685898 8.90561 0.808711 8.90561ZM19.1912 16.3677H0.808711C0.685859 16.3677 0.585938 16.2677 0.585938 16.1449V14.2943H19.4141V16.1449C19.4141 16.2678 19.3141 16.3677 19.1912 16.3677Z" fill="#3E4958"/>
</g>
<defs>
<clipPath id="clip0">
<rect width="20" height="20" fill="white"/>
</clipPath>
</defs>
</svg>
